<svg width="504" height="612" xmlns="http://www.w3.org/2000/svg" xmlns:xlink="http://www.w3.org/1999/xlink" overflow="hidden"><defs><clipPath id="clip0"><path d="M277 40 781 40 781 652 277 652Z" fill-rule="evenodd" clip-rule="evenodd"/></clipPath></defs><g clip-path="url(#clip0)" transform="translate(-277 -40)"><path d="M699.5 41.5001 779.5 41.5001 779.5 71.5002 699.5 71.5002Z" stroke="#000000" stroke-miterlimit="8" fill="#FFFFFF" fill-rule="evenodd"/><text font-family="Cambria Math,Cambria Math_MSFontService,sans-serif" font-weight="400" font-size="13" transform="translate(732.692 60)">𝑅</text><path d="M340.5 41.5001 420.5 41.5001 420.5 71.5002 340.5 71.5002Z" stroke="#000000" stroke-miterlimit="8" fill="#FFFFFF" fill-rule="evenodd"/><text font-family="Cambria Math,Cambria Math_MSFontService,sans-serif" font-weight="400" font-size="13" transform="translate(369.864 60)">𝐴<tspan font-size="9" x="8.5" y="3">𝐿</tspan></text><path d="M520.5 41.5001 599.5 41.5001 599.5 71.5002 520.5 71.5002Z" stroke="#000000" stroke-miterlimit="8" fill="#FFFFFF" fill-rule="evenodd"/><text font-family="Cambria Math,Cambria Math_MSFontService,sans-serif" font-weight="400" font-size="13" transform="translate(549.016 60)">𝐴<tspan font-size="9" x="8.5" y="3">𝐷</tspan></text><path d="M370.5 651.5 370.5 71.5001" stroke="#000000" stroke-miterlimit="8" stroke-dasharray="2.25 2.25" fill="none" fill-rule="evenodd"/><path d="M549.5 521.5 549.5 71.5001" stroke="#000000" stroke-miterlimit="8" stroke-dasharray="2.25 2.25" fill="none" fill-rule="evenodd"/><path d="M729.5 651.5 729.5 71.5001" stroke="#000000" stroke-miterlimit="8" stroke-dasharray="2.25 2.25" fill="none" fill-rule="evenodd"/><path d="M551 534 567 518" stroke="#000000" stroke-width="2" stroke-miterlimit="8" fill="none" fill-rule="evenodd"/><path d="M551 518 567 534" stroke="#000000" stroke-width="2" stroke-miterlimit="8" fill="none" fill-rule="evenodd"/><path d="M390.5 651.5 390.5 71.5001" stroke="#000000" stroke-miterlimit="8" stroke-dasharray="2.25 2.25" fill="none" fill-rule="evenodd"/><path d="M569.5 521.5 569.5 71.5001" stroke="#000000" stroke-miterlimit="8" stroke-dasharray="2.25 2.25" fill="none" fill-rule="evenodd"/><path d="M749.5 651.5 749.5 71.5001" stroke="#000000" stroke-miterlimit="8" stroke-dasharray="2.25 2.25" fill="none" fill-rule="evenodd"/><path d="M559.5 526.5 549.5 521.5" stroke="#000000" stroke-miterlimit="8" stroke-dasharray="2.25 2.25" fill="none" fill-rule="evenodd"/><path d="M569.5 521.5 559.5 526.5" stroke="#000000" stroke-miterlimit="8" stroke-dasharray="2.25 2.25" fill="none" fill-rule="evenodd"/><path d="M365.5 111.5 375.5 111.5 375.5 631.5 365.5 631.5Z" stroke="#000000" stroke-miterlimit="8" fill="#FFFFFF" fill-rule="evenodd"/><path d="M564.5 171.5 574.5 171.5 574.5 511.5 564.5 511.5Z" stroke="#000000" stroke-miterlimit="8" fill="#FFFFFF" fill-rule="evenodd"/><path d="M744.5 181.5 754.5 181.5 754.5 461.5 744.5 461.5Z" stroke="#000000" stroke-miterlimit="8" fill="#FFFFFF" fill-rule="evenodd"/><path d="M724.5 301.5 734.5 301.5 734.5 414.5 724.5 414.5Z" stroke="#000000" stroke-miterlimit="8" fill="#FFFFFF" fill-rule="evenodd"/><path d="M385.5 351.5 395.5 351.5 395.5 461.5 385.5 461.5Z" stroke="#000000" stroke-miterlimit="8" fill="#FFFFFF" fill-rule="evenodd"/><path d="M744.5 551.5 754.5 551.5 754.5 621.5 744.5 621.5Z" stroke="#000000" stroke-miterlimit="8" fill="#FFFFFF" fill-rule="evenodd"/><path d="M739.5 571.5 749.5 571.5 749.5 601.5 739.5 601.5Z" stroke="#000000" stroke-miterlimit="8" fill="#FFFFFF" fill-rule="evenodd"/><path d="M739.5 201.5 749.5 201.5 749.5 442.501 739.5 442.501Z" stroke="#000000" stroke-miterlimit="8" fill="#FFFFFF" fill-rule="evenodd"/><path d="M559.5 201.5 569.5 201.5 569.5 231.5 559.5 231.5Z" stroke="#000000" stroke-miterlimit="8" fill="#FFFFFF" fill-rule="evenodd"/><path d="M385.5 241.5 395.5 241.5 395.5 301.5 385.5 301.5Z" stroke="#000000" stroke-miterlimit="8" fill="#FFFFFF" fill-rule="evenodd"/><path d="M360.5 131.5 370.5 131.5 370.5 161.5 360.5 161.5Z" stroke="#000000" stroke-miterlimit="8" fill="#FFFFFF" fill-rule="evenodd"/><path d="M365.5 121.5 345.5 121.5 345.5 131.5 352.38 131.5" stroke="#000000" stroke-miterlimit="8" fill="none" fill-rule="evenodd"/><path d="M358.5 131 351.5 134.5 351.5 127.5Z" stroke="#000000" stroke-miterlimit="8" fill-rule="evenodd"/><path d="M559.5 321.5 569.5 321.5 569.5 491.5 559.5 491.5Z" stroke="#000000" stroke-miterlimit="8" fill="#FFFFFF" fill-rule="evenodd"/><path d="M564.5 311.5 539.5 311.5 539.5 321.5 551.38 321.5" stroke="#000000" stroke-miterlimit="8" fill="none" fill-rule="evenodd"/><path d="M558.5 321 551.5 324.5 551.5 317.5Z" stroke="#000000" stroke-miterlimit="8" fill-rule="evenodd"/><path d="M544.5 451.5 554.5 451.5 554.5 481.5 544.5 481.5Z" stroke="#000000" stroke-miterlimit="8" fill="#FFFFFF" fill-rule="evenodd"/><path d="M375.5 171.5 556.5 171.5" stroke="#000000" stroke-miterlimit="8" fill="none" fill-rule="evenodd"/><path d="M563.5 171 556.5 174.5 556.5 167.5Z" stroke="#000000" stroke-miterlimit="8" fill-rule="evenodd"/><path d="M293.5 111.5 356.5 111.5" stroke="#000000" stroke-miterlimit="8" fill="none" fill-rule="evenodd"/><path d="M293.5 111.5C293.5 113.157 292.157 114.5 290.5 114.5 288.843 114.5 287.5 113.157 287.5 111.5 287.5 109.843 288.843 108.5 290.5 108.5 292.157 108.5 293.5 109.843 293.5 111.5Z" stroke="#000000" stroke-miterlimit="8" fill-rule="evenodd"/><path d="M363.5 111 356.5 114.5 356.5 107.5Z" stroke="#000000" stroke-miterlimit="8" fill-rule="evenodd"/><path d="M574.5 181.5 736.5 181.5" stroke="#000000" stroke-miterlimit="8" fill="none" fill-rule="evenodd"/><path d="M743.5 181 736.5 184.5 736.5 177.5Z" stroke="#000000" stroke-miterlimit="8" fill-rule="evenodd"/><path d="M574.5 301.5 724.5 301.5" stroke="#000000" stroke-miterlimit="8" fill="none" fill-rule="evenodd"/><path d="M724.5 351.5 403.5 351.5" stroke="#000000" stroke-miterlimit="8" fill="none" fill-rule="evenodd"/><path d="M396.5 351 403.5 347.5 403.5 354.5Z" stroke="#000000" stroke-miterlimit="8" fill-rule="evenodd"/><path d="M395.5 451.5 542.5 451.5" stroke="#000000" stroke-miterlimit="8" fill="none" fill-rule="evenodd"/><path d="M536.5 454.5 543.5 451 536.5 447.5" stroke="#000000" stroke-miterlimit="8" fill="none" fill-rule="evenodd"/><path d="M395.5 401.5 722.5 401.5" stroke="#000000" stroke-miterlimit="8" stroke-dasharray="0.75 1.5" fill="none" fill-rule="evenodd"/><path d="M716.5 404.5 723.5 401 716.5 397.5" stroke="#000000" stroke-miterlimit="8" fill="none" fill-rule="evenodd"/><path d="M744.5 451.5 577.5 451.5" stroke="#000000" stroke-miterlimit="8" stroke-dasharray="0.75 1.5" fill="none" fill-rule="evenodd"/><path d="M583.5 447.5 576.5 451 583.5 454.5" stroke="#000000" stroke-miterlimit="8" fill="none" fill-rule="evenodd"/><path d="M564.5 501.5 377.5 501.5" stroke="#000000" stroke-miterlimit="8" stroke-dasharray="0.75 1.5" fill="none" fill-rule="evenodd"/><path d="M383.5 497.5 376.5 501 383.5 504.5" stroke="#000000" stroke-miterlimit="8" fill="none" fill-rule="evenodd"/><path d="M375.5 551.5 736.5 551.5" stroke="#000000" stroke-miterlimit="8" fill="none" fill-rule="evenodd"/><path d="M743.5 551 736.5 554.5 736.5 547.5Z" stroke="#000000" stroke-miterlimit="8" fill-rule="evenodd"/><path d="M744.5 561.5 719.5 561.5 719.5 571.5 731.38 571.5" stroke="#000000" stroke-miterlimit="8" fill="none" fill-rule="evenodd"/><path d="M738.5 571 731.5 574.5 731.5 567.5Z" stroke="#000000" stroke-miterlimit="8" fill-rule="evenodd"/><path d="M744.5 611.5 377.5 611.5" stroke="#000000" stroke-miterlimit="8" stroke-dasharray="0.75 1.5" fill="none" fill-rule="evenodd"/><path d="M383.5 607.5 376.5 611 383.5 614.5" stroke="#000000" stroke-miterlimit="8" fill="none" fill-rule="evenodd"/><path d="M365.5 621.5 292.5 621.5" stroke="#000000" stroke-miterlimit="8" stroke-dasharray="0.75 1.5" fill="none" fill-rule="evenodd"/><path d="M298.5 618.5 291.5 621 298.5 623.5" stroke="#000000" stroke-miterlimit="8" fill="none" fill-rule="evenodd"/><path d="M744.5 191.5 719.5 191.5 719.5 201.5 731.38 201.5" stroke="#000000" stroke-miterlimit="8" fill="none" fill-rule="evenodd"/><path d="M738.5 201 731.5 204.5 731.5 197.5Z" stroke="#000000" stroke-miterlimit="8" fill-rule="evenodd"/><path d="M564.5 191.5 539.5 191.5 539.5 201.5 551.38 201.5" stroke="#000000" stroke-miterlimit="8" fill="none" fill-rule="evenodd"/><path d="M558.5 201 551.5 204.5 551.5 197.5Z" stroke="#000000" stroke-miterlimit="8" fill-rule="evenodd"/><path d="M564.5 241.5 403.5 241.5" stroke="#000000" stroke-miterlimit="8" fill="none" fill-rule="evenodd"/><path d="M396.5 241 403.5 237.5 403.5 244.5Z" stroke="#000000" stroke-miterlimit="8" fill-rule="evenodd"/><path d="M395.5 291.5 562.5 291.5" stroke="#000000" stroke-miterlimit="8" stroke-dasharray="0.75 1.5" fill="none" fill-rule="evenodd"/><path d="M556.5 294.5 563.5 291 556.5 287.5" stroke="#000000" stroke-miterlimit="8" fill="none" fill-rule="evenodd"/><path d="M554.5 471.5 589.5 471.5 589.5 481.5 577.62 481.5" stroke="#000000" stroke-miterlimit="8" fill="none" fill-rule="evenodd"/><path d="M571.5 481 578.5 477.5 578.5 484.5Z" stroke="#000000" stroke-miterlimit="8" fill-rule="evenodd"/><text font-family="Malgun Gothic,Malgun Gothic_MSFontService,sans-serif" font-weight="400" font-size="13" transform="translate(632.801 199)">함수<tspan font-family="Cambria Math,Cambria Math_MSFontService,sans-serif" x="31.3333" y="0">𝑓</tspan><tspan x="43.56" y="0">초기화</tspan><tspan font-family="Cambria Math,Cambria Math_MSFontService,sans-serif" x="-184.757" y="-38">𝑀</tspan><tspan font-family="Cambria Math,Cambria Math_MSFontService,sans-serif" font-size="9" x="-174.204" y="-35">𝐿</tspan><tspan font-family="Cambria Math,Cambria Math_MSFontService,sans-serif" x="-164.35" y="-38">∥</tspan><tspan font-family="Cambria Math,Cambria Math_MSFontService,sans-serif" x="-154.477" y="-38">𝑓</tspan><tspan font-family="Cambria Math,Cambria Math_MSFontService,sans-serif" x="-4.80542" y="-28">𝑀</tspan><tspan font-family="Cambria Math,Cambria Math_MSFontService,sans-serif" font-size="9" x="5.74792" y="-25">𝐿</tspan><tspan font-family="Cambria Math,Cambria Math_MSFontService,sans-serif" x="15.6013" y="-28">∥</tspan><tspan font-family="Cambria Math,Cambria Math_MSFontService,sans-serif" x="25.4745" y="-28">𝑓</tspan><tspan x="-198.017" y="0">함수</tspan><tspan font-family="Cambria Math,Cambria Math_MSFontService,sans-serif" x="-166.684" y="0">𝑓</tspan><tspan x="-154.457" y="0">정보</tspan><tspan x="-123.124" y="0">확인</tspan><tspan font-family="Cambria Math,Cambria Math_MSFontService,sans-serif" x="-186.336" y="32">𝑀</tspan><tspan font-family="Cambria Math,Cambria Math_MSFontService,sans-serif" font-size="9" x="-175.783" y="35">𝐻</tspan><tspan font-family="Cambria Math,Cambria Math_MSFontService,sans-serif" x="-163.93" y="32">∥</tspan><tspan font-family="Cambria Math,Cambria Math_MSFontService,sans-serif" x="-154.056" y="32">𝑅</tspan><tspan font-family="Cambria Math,Cambria Math_MSFontService,sans-serif" x="-190.161" y="82">𝑀</tspan><tspan font-family="Cambria Math,Cambria Math_MSFontService,sans-serif" font-size="9" x="-179.608" y="85">𝑅</tspan><tspan font-family="Cambria Math,Cambria Math_MSFontService,sans-serif" x="-168.721" y="82">∥</tspan><tspan font-family="Cambria Math,Cambria Math_MSFontService,sans-serif" x="-158.848" y="82">𝑀</tspan><tspan font-family="Cambria Math,Cambria Math_MSFontService,sans-serif" font-size="9" x="-148.295" y="85">𝐻</tspan><tspan font-family="Cambria Math,Cambria Math_MSFontService,sans-serif" x="-9.25586" y="92">𝑀</tspan><tspan font-family="Cambria Math,Cambria Math_MSFontService,sans-serif" font-size="9" x="1.29749" y="95">𝐻</tspan><tspan font-family="Cambria Math,Cambria Math_MSFontService,sans-serif" x="13.1508" y="92">∥</tspan><tspan font-family="Cambria Math,Cambria Math_MSFontService,sans-serif" x="23.0241" y="92">𝐴</tspan><tspan font-family="Cambria Math,Cambria Math_MSFontService,sans-serif" font-size="9" x="31.5241" y="95">𝐿</tspan><tspan x="-9.82178" y="142">연결</tspan><tspan x="21.5116" y="142">요청</tspan><tspan x="-192.321" y="243">연결</tspan><tspan x="-160.988" y="243">종료</tspan><tspan x="-192.318" y="192">연결</tspan><tspan x="-160.984" y="192">수락</tspan><tspan font-family="Cambria Math,Cambria Math_MSFontService,sans-serif" x="-12.1506" y="243">𝑀</tspan><tspan font-family="Cambria Math,Cambria Math_MSFontService,sans-serif" font-size="9" x="-1.59723" y="246">𝑅</tspan><tspan font-family="Cambria Math,Cambria Math_MSFontService,sans-serif" x="9.28943" y="243">∥</tspan><tspan font-family="Cambria Math,Cambria Math_MSFontService,sans-serif" x="19.1628" y="243">𝑀</tspan><tspan font-family="Cambria Math,Cambria Math_MSFontService,sans-serif" font-size="9" x="29.7161" y="246">𝐿</tspan><tspan font-family="Cambria Math,Cambria Math_MSFontService,sans-serif" x="-189.658" y="293">𝑀</tspan><tspan font-family="Cambria Math,Cambria Math_MSFontService,sans-serif" font-size="9" x="-179.104" y="296">𝑅</tspan><tspan font-family="Cambria Math,Cambria Math_MSFontService,sans-serif" x="-168.218" y="293">∥</tspan><tspan font-family="Cambria Math,Cambria Math_MSFontService,sans-serif" x="-158.344" y="293">𝑀</tspan><tspan font-family="Cambria Math,Cambria Math_MSFontService,sans-serif" font-size="9" x="-147.791" y="296">𝐿</tspan><tspan font-family="Cambria Math,Cambria Math_MSFontService,sans-serif" x="-183.928" y="343">𝑀</tspan><tspan font-family="Cambria Math,Cambria Math_MSFontService,sans-serif" font-size="9" x="-173.374" y="346">𝐼</tspan><tspan font-family="Cambria Math,Cambria Math_MSFontService,sans-serif" x="-164.974" y="343">∥</tspan><tspan font-family="Cambria Math,Cambria Math_MSFontService,sans-serif" x="-155.101" y="343">𝑓</tspan><tspan font-family="Cambria Math,Cambria Math_MSFontService,sans-serif" x="-19.5781" y="402">𝑀</tspan><tspan font-family="Cambria Math,Cambria Math_MSFontService,sans-serif" font-size="9" x="-9.02478" y="405">𝑅</tspan><tspan font-family="Cambria Math,Cambria Math_MSFontService,sans-serif" x="1.86194" y="402">∥</tspan><tspan font-family="Cambria Math,Cambria Math_MSFontService,sans-serif" x="11.7352" y="402">𝑀</tspan><tspan font-family="Cambria Math,Cambria Math_MSFontService,sans-serif" font-size="9" x="22.2886" y="405">𝐼</tspan><tspan font-family="Cambria Math,Cambria Math_MSFontService,sans-serif" x="30.6886" y="402">∥</tspan><tspan font-family="Cambria Math,Cambria Math_MSFontService,sans-serif" x="40.5619" y="402">𝑦</tspan><tspan x="3.87109" y="371">함수</tspan><tspan font-family="Cambria Math,Cambria Math_MSFontService,sans-serif" x="35.2044" y="371">𝑓</tspan><tspan x="47.5978" y="371">실행</tspan><tspan font-family="Cambria Math,Cambria Math_MSFontService,sans-serif" x="-327.884" y="-94">𝑀</tspan><tspan font-family="Cambria Math,Cambria Math_MSFontService,sans-serif" font-size="9" x="-317.331" y="-91">𝐼</tspan><tspan font-family="Cambria Math,Cambria Math_MSFontService,sans-serif" x="-308.931" y="-94">∥</tspan><tspan font-family="Cambria Math,Cambria Math_MSFontService,sans-serif" x="-299.057" y="-94">𝑓</tspan><tspan font-family="Cambria Math,Cambria Math_MSFontService,sans-serif" x="-343.541" y="414">𝑀</tspan><tspan font-family="Cambria Math,Cambria Math_MSFontService,sans-serif" font-size="9" x="-332.987" y="417">𝑅</tspan><tspan font-family="Cambria Math,Cambria Math_MSFontService,sans-serif" x="-322.101" y="414">∥</tspan><tspan font-family="Cambria Math,Cambria Math_MSFontService,sans-serif" x="-312.227" y="414">𝑀</tspan><tspan font-family="Cambria Math,Cambria Math_MSFontService,sans-serif" font-size="9" x="-301.674" y="417">𝐼</tspan><tspan font-family="Cambria Math,Cambria Math_MSFontService,sans-serif" x="-293.274" y="414">∥</tspan><tspan font-family="Cambria Math,Cambria Math_MSFontService,sans-serif" x="-283.401" y="414">𝑦</tspan><tspan x="-340.135" y="-70">함수</tspan><tspan font-family="Cambria Math,Cambria Math_MSFontService,sans-serif" x="-308.801" y="-70">𝑓</tspan><tspan x="-347.268" y="-54">다운로드</tspan><tspan x="-185.898" y="121">연결</tspan><tspan x="-154.565" y="121">종료</tspan><tspan x="-123.232" y="121">대기</tspan><tspan x="-40.5764" y="282">연결</tspan><tspan x="-9.24304" y="282">종료</tspan><tspan x="22.0903" y="282">통보</tspan></text><path d="M717.5 304.5 724.5 301 717.5 297.5" stroke="#000000" stroke-miterlimit="8" fill="none" fill-rule="evenodd"/></g></svg>