<svg version="1.1" viewBox="0.0 0.0 600.0 226.0" fill="none" stroke="none" stroke-linecap="square" stroke-miterlimit="10" width="600" height="226" xmlns:xlink="http://www.w3.org/1999/xlink" xmlns="http://www.w3.org/2000/svg"><path fill="#ffffff" d="M0 0L600.0 0L600.0 226.0L0 226.0L0 0Z" fill-rule="nonzero"/><path stroke="#333333" stroke-width="1.0" stroke-linecap="butt" d="M111.5 11.5L111.5 162.5" fill-rule="nonzero"/><path stroke="#cccccc" stroke-width="1.0" stroke-linecap="butt" d="M206.5 11.5L206.5 162.5" fill-rule="nonzero"/><path stroke="#cccccc" stroke-width="1.0" stroke-linecap="butt" d="M302.5 11.5L302.5 162.5" fill-rule="nonzero"/><path stroke="#cccccc" stroke-width="1.0" stroke-linecap="butt" d="M397.5 11.5L397.5 162.5" fill-rule="nonzero"/><path stroke="#cccccc" stroke-width="1.0" stroke-linecap="butt" d="M493.5 11.5L493.5 162.5" fill-rule="nonzero"/><path stroke="#cccccc" stroke-width="1.0" stroke-linecap="butt" d="M588.5 11.5L588.5 162.5" fill-rule="nonzero"/><clipPath id="id_0"><path d="M111.3 11.3L588.7 11.3L588.7 162.7L111.3 162.7L111.3 11.3Z" clip-rule="nonzero"/></clipPath><path stroke="#000000" stroke-width="2.0" stroke-linecap="butt" stroke-opacity="0.0" clip-path="url(#id_0)" d="M111.0 57.0L111.0 28.0L550.0 28.0C551.10455 28.0 552.0 28.89543 552.0 30.0L552.0 55.0C552.0 56.10457 551.10455 57.0 550.0 57.0Z" fill-rule="nonzero"/><path fill="#666666" clip-path="url(#id_0)" d="M111.0 57.0L111.0 28.0L550.0 28.0C551.10455 28.0 552.0 28.89543 552.0 30.0L552.0 55.0C552.0 56.10457 551.10455 57.0 550.0 57.0Z" fill-rule="nonzero"/><path stroke="#000000" stroke-width="2.0" stroke-linecap="butt" stroke-opacity="0.0" clip-path="url(#id_0)" d="M111.0 102.0L111.0 73.0L255.0 73.0C256.10458 73.0 257.0 73.89543 257.0 75.0L257.0 100.0C257.0 101.10457 256.10458 102.0 255.0 102.0Z" fill-rule="nonzero"/><path fill="#4285f4" clip-path="url(#id_0)" d="M111.0 102.0L111.0 73.0L255.0 73.0C256.10458 73.0 257.0 73.89543 257.0 75.0L257.0 100.0C257.0 101.10457 256.10458 102.0 255.0 102.0Z" fill-rule="nonzero"/><path stroke="#000000" stroke-width="2.0" stroke-linecap="butt" stroke-opacity="0.0" clip-path="url(#id_0)" d="M111.0 147.0L111.0 118.0L240.0 118.0C241.10457 118.0 242.0 118.89543 242.0 120.0L242.0 145.0C242.0 146.10457 241.10457 147.0 240.0 147.0Z" fill-rule="nonzero"/><path fill="#4285f4" clip-path="url(#id_0)" d="M111.0 147.0L111.0 118.0L240.0 118.0C241.10457 118.0 242.0 118.89543 242.0 120.0L242.0 145.0C242.0 146.10457 241.10457 147.0 240.0 147.0Z" fill-rule="nonzero"/><path stroke="#666666" stroke-width="3.0" stroke-linejoin="round" stroke-linecap="round" d="M506.39438 46.5L505.31625 46.5L505.31625 39.28125L503.12875 40.078125L503.12875 39.09375L506.23813 37.921875L506.39438 37.921875L506.39438 46.5ZM513.39435 46.5L512.3162 46.5L512.3162 39.28125L510.12875 40.078125L510.12875 39.09375L513.2381 37.921875L513.39435 37.921875L513.39435 46.5ZM517.33185 42.21875L517.76935 37.96875L522.14435 37.96875L522.14435 38.96875L518.6912 38.96875L518.4256 41.296875Q519.0662 40.921875 519.8631 40.921875Q521.01935 40.921875 521.70685 41.703125Q522.39435 42.46875 522.39435 43.78125Q522.39435 45.09375 521.6756 45.859375Q520.9725 46.625 519.6912 46.625Q518.5662 46.625 517.8475 46.0Q517.1287 45.359375 517.035 44.25L518.0506 44.25Q518.16 44.984375 518.58185 45.359375Q519.0037 45.734375 519.6912 45.734375Q520.4412 45.734375 520.8787 45.21875Q521.3162 44.703125 521.3162 43.796875Q521.3162 42.9375 520.8475 42.421875Q520.3787 41.90625 519.5975 41.90625Q518.89435 41.90625 518.4881 42.203125L518.20685 42.4375L517.33185 42.21875ZM525.41 41.703125L526.2225 41.703125Q527.0037 41.6875 527.4412 41.296875Q527.8787 40.90625 527.8787 40.234375Q527.8787 38.734375 526.3787 38.734375Q525.6756 38.734375 525.2537 39.140625Q524.8475 39.546875 524.8475 40.203125L523.7537 40.203125Q523.7537 39.1875 524.4881 38.515625Q525.2381 37.84375 526.3787 37.84375Q527.58185 37.84375 528.26935 38.484375Q528.95685 39.125 528.95685 40.265625Q528.95685 40.828125 528.5975 41.34375Q528.2381 41.859375 527.6131 42.125Q528.3162 42.34375 528.6912 42.859375Q529.08185 43.375 529.08185 44.125Q529.08185 45.265625 528.33185 45.953125Q527.58185 46.625 526.3787 46.625Q525.1912 46.625 524.4256 45.96875Q523.6756 45.3125 523.6756 44.25L524.76935 44.25Q524.76935 44.921875 525.20685 45.328125Q525.64435 45.734375 526.39435 45.734375Q527.1756 45.734375 527.58185 45.328125Q528.0037 44.90625 528.0037 44.140625Q528.0037 43.40625 527.5506 43.015625Q527.0975 42.609375 526.2225 42.59375L525.41 42.59375L525.41 41.703125ZM530.9725 45.9375Q530.9725 45.65625 531.1287 45.46875Q531.3006 45.28125 531.6287 45.28125Q531.9725 45.28125 532.14435 45.46875Q532.3162 45.65625 532.3162 45.9375Q532.3162 46.203125 532.14435 46.390625Q531.9725 46.5625 531.6287 46.5625Q531.3006 46.5625 531.1287 46.390625Q530.9725 46.203125 530.9725 45.9375ZM539.3475 38.578125L535.8162 46.5L534.6756 46.5L538.1912 38.859375L533.58185 38.859375L533.58185 37.96875L539.3475 37.96875L539.3475 38.578125ZM546.4256 46.5L540.83185 46.5L540.83185 45.71875L543.785 42.4375Q544.4412 41.6875 544.6912 41.234375Q544.9412 40.765625 544.9412 40.265625Q544.9412 39.59375 544.535 39.171875Q544.14435 38.734375 543.45685 38.734375Q542.66 38.734375 542.20685 39.203125Q541.7537 39.65625 541.7537 40.484375L540.6756 40.484375Q540.6756 39.296875 541.4256 38.578125Q542.1912 37.84375 543.45685 37.84375Q544.66 37.84375 545.3475 38.46875Q546.035 39.09375 546.035 40.140625Q546.035 41.390625 544.4256 43.140625L542.14435 45.609375L546.4256 45.609375L546.4256 46.5Z" fill-rule="nonzero"/><path fill="#ffffff" d="M506.39438 46.5L505.31625 46.5L505.31625 39.28125L503.12875 40.078125L503.12875 39.09375L506.23813 37.921875L506.39438 37.921875L506.39438 46.5ZM513.3944 46.5L512.3163 46.5L512.3163 39.28125L510.12875 40.078125L510.12875 39.09375L513.23816 37.921875L513.3944 37.921875L513.3944 46.5ZM517.3319 42.21875L517.7694 37.96875L522.1444 37.96875L522.1444 38.96875L518.6913 38.96875L518.42566 41.296875Q519.0663 40.921875 519.86316 40.921875Q521.0194 40.921875 521.7069 41.703125Q522.3944 42.46875 522.3944 43.78125Q522.3944 45.09375 521.67566 45.859375Q520.97253 46.625 519.6913 46.625Q518.5663 46.625 517.84753 46.0Q517.1288 45.359375 517.03503 44.25L518.05066 44.25Q518.16003 44.984375 518.5819 45.359375Q519.0038 45.734375 519.6913 45.734375Q520.4413 45.734375 520.8788 45.21875Q521.3163 44.703125 521.3163 43.796875Q521.3163 42.9375 520.84753 42.421875Q520.3788 41.90625 519.59753 41.90625Q518.8944 41.90625 518.48816 42.203125L518.2069 42.4375L517.3319 42.21875ZM525.41003 41.703125L526.22253 41.703125Q527.0038 41.6875 527.4413 41.296875Q527.8788 40.90625 527.8788 40.234375Q527.8788 38.734375 526.3788 38.734375Q525.67566 38.734375 525.2538 39.140625Q524.84753 39.546875 524.84753 40.203125L523.7538 40.203125Q523.7538 39.1875 524.48816 38.515625Q525.23816 37.84375 526.3788 37.84375Q527.5819 37.84375 528.2694 38.484375Q528.9569 39.125 528.9569 40.265625Q528.9569 40.828125 528.59753 41.34375Q528.23816 41.859375 527.61316 42.125Q528.3163 42.34375 528.6913 42.859375Q529.0819 43.375 529.0819 44.125Q529.0819 45.265625 528.3319 45.953125Q527.5819 46.625 526.3788 46.625Q525.1913 46.625 524.42566 45.96875Q523.67566 45.3125 523.67566 44.25L524.7694 44.25Q524.7694 44.921875 525.2069 45.328125Q525.6444 45.734375 526.3944 45.734375Q527.17566 45.734375 527.5819 45.328125Q528.0038 44.90625 528.0038 44.140625Q528.0038 43.40625 527.55066 43.015625Q527.09753 42.609375 526.22253 42.59375L525.41003 42.59375L525.41003 41.703125ZM530.97253 45.9375Q530.97253 45.65625 531.1288 45.46875Q531.30066 45.28125 531.6288 45.28125Q531.97253 45.28125 532.1444 45.46875Q532.3163 45.65625 532.3163 45.9375Q532.3163 46.203125 532.1444 46.390625Q531.97253 46.5625 531.6288 46.5625Q531.30066 46.5625 531.1288 46.390625Q530.97253 46.203125 530.97253 45.9375ZM539.34753 38.578125L535.8163 46.5L534.67566 46.5L538.1913 38.859375L533.5819 38.859375L533.5819 37.96875L539.34753 37.96875L539.34753 38.578125ZM546.42566 46.5L540.8319 46.5L540.8319 45.71875L543.78503 42.4375Q544.4413 41.6875 544.6913 41.234375Q544.9413 40.765625 544.9413 40.265625Q544.9413 39.59375 544.53503 39.171875Q544.1444 38.734375 543.4569 38.734375Q542.66003 38.734375 542.2069 39.203125Q541.7538 39.65625 541.7538 40.484375L540.67566 40.484375Q540.67566 39.296875 541.42566 38.578125Q542.1913 37.84375 543.4569 37.84375Q544.66003 37.84375 545.34753 38.46875Q546.03503 39.09375 546.03503 40.140625Q546.03503 41.390625 544.42566 43.140625L542.1444 45.609375L546.42566 45.609375L546.42566 46.5Z" fill-rule="nonzero"/><path stroke="#4285f4" stroke-width="3.0" stroke-linejoin="round" stroke-linecap="round" d="M209.73923 86.703125L210.55173 86.703125Q211.33298 86.6875 211.77048 86.296875Q212.20798 85.90625 212.20798 85.234375Q212.20798 83.734375 210.70798 83.734375Q210.00485 83.734375 209.58298 84.140625Q209.17673 84.546875 209.17673 85.203125L208.08298 85.203125Q208.08298 84.1875 208.81735 83.515625Q209.56735 82.84375 210.70798 82.84375Q211.9111 82.84375 212.5986 83.484375Q213.2861 84.125 213.2861 85.265625Q213.2861 85.828125 212.92673 86.34375Q212.56735 86.859375 211.94235 87.125Q212.64548 87.34375 213.02048 87.859375Q213.4111 88.375 213.4111 89.125Q213.4111 90.265625 212.6611 90.953125Q211.9111 91.625 210.70798 91.625Q209.52048 91.625 208.75485 90.96875Q208.00485 90.3125 208.00485 89.25L209.0986 89.25Q209.0986 89.921875 209.5361 90.328125Q209.9736 90.734375 210.7236 90.734375Q211.50485 90.734375 211.9111 90.328125Q212.33298 89.90625 212.33298 89.140625Q212.33298 88.40625 211.87985 88.015625Q211.42673 87.609375 210.55173 87.59375L209.73923 87.59375L209.73923 86.703125ZM220.3486 85.1875Q220.3486 85.828125 220.00485 86.328125Q219.6611 86.828125 219.0986 87.109375Q219.75485 87.390625 220.14548 87.953125Q220.5361 88.5 220.5361 89.203125Q220.5361 90.296875 219.7861 90.96875Q219.05173 91.625 217.83298 91.625Q216.5986 91.625 215.8486 90.96875Q215.11423 90.296875 215.11423 89.203125Q215.11423 88.5 215.48923 87.953125Q215.86423 87.390625 216.5361 87.109375Q215.9736 86.828125 215.64548 86.328125Q215.31735 85.828125 215.31735 85.1875Q215.31735 84.109375 216.00485 83.484375Q216.69235 82.84375 217.83298 82.84375Q218.95798 82.84375 219.64548 83.484375Q220.3486 84.109375 220.3486 85.1875ZM219.45798 89.171875Q219.45798 88.453125 219.00485 88.015625Q218.55173 87.5625 217.81735 87.5625Q217.08298 87.5625 216.62985 88.015625Q216.19235 88.453125 216.19235 89.1875Q216.19235 89.90625 216.62985 90.328125Q217.06735 90.734375 217.83298 90.734375Q218.58298 90.734375 219.02048 90.3125Q219.45798 89.890625 219.45798 89.171875ZM217.83298 83.734375Q217.19235 83.734375 216.7861 84.140625Q216.39548 84.53125 216.39548 85.21875Q216.39548 85.859375 216.7861 86.265625Q217.17673 86.671875 217.81735 86.671875Q218.4736 86.671875 218.86423 86.265625Q219.25485 85.859375 219.25485 85.21875Q219.25485 84.5625 218.8486 84.15625Q218.44235 83.734375 217.83298 83.734375ZM227.75485 91.5L222.1611 91.5L222.1611 90.71875L225.11423 87.4375Q225.77048 86.6875 226.02048 86.234375Q226.27048 85.765625 226.27048 85.265625Q226.27048 84.59375 225.86423 84.171875Q225.4736 83.734375 224.7861 83.734375Q223.98923 83.734375 223.5361 84.203125Q223.08298 84.65625 223.08298 85.484375L222.00485 85.484375Q222.00485 84.296875 222.75485 83.578125Q223.52048 82.84375 224.7861 82.84375Q225.98923 82.84375 226.67673 83.46875Q227.36423 84.09375 227.36423 85.140625Q227.36423 86.390625 225.75485 88.140625L223.4736 90.609375L227.75485 90.609375L227.75485 91.5ZM229.30173 90.9375Q229.30173 90.65625 229.45798 90.46875Q229.62985 90.28125 229.95798 90.28125Q230.30173 90.28125 230.4736 90.46875Q230.64548 90.65625 230.64548 90.9375Q230.64548 91.203125 230.4736 91.390625Q230.30173 91.5625 229.95798 91.5625Q229.62985 91.5625 229.45798 91.390625Q229.30173 91.203125 229.30173 90.9375ZM235.7236 91.5L234.64548 91.5L234.64548 84.28125L232.45798 85.078125L232.45798 84.09375L235.56735 82.921875L235.7236 82.921875L235.7236 91.5ZM243.42673 82.96875L243.42673 83.875L243.2236 83.875Q241.95798 83.90625 241.20798 84.640625Q240.45798 85.359375 240.33298 86.671875Q241.02048 85.90625 242.17673 85.90625Q243.2861 85.90625 243.95798 86.6875Q244.62985 87.46875 244.62985 88.71875Q244.62985 90.03125 243.9111 90.828125Q243.19235 91.625 241.9736 91.625Q240.75485 91.625 239.98923 90.6875Q239.23923 89.734375 239.23923 88.25L239.23923 87.84375Q239.23923 85.484375 240.23923 84.234375Q241.23923 82.984375 243.2236 82.96875L243.42673 82.96875ZM242.00485 86.8125Q241.44235 86.8125 240.9736 87.140625Q240.50485 87.46875 240.31735 87.984375L240.31735 88.375Q240.31735 89.4375 240.7861 90.078125Q241.27048 90.71875 241.9736 90.71875Q242.70798 90.71875 243.12985 90.1875Q243.55173 89.640625 243.55173 88.765625Q243.55173 87.890625 243.12985 87.359375Q242.70798 86.8125 242.00485 86.8125ZM250.31735 87.75Q249.98923 88.15625 249.50485 88.40625Q249.0361 88.640625 248.4736 88.640625Q247.73923 88.640625 247.19235 88.28125Q246.64548 87.921875 246.3486 87.265625Q246.05173 86.59375 246.05173 85.796875Q246.05173 84.953125 246.36423 84.265625Q246.69235 83.578125 247.2861 83.21875Q247.89548 82.84375 248.69235 82.84375Q249.95798 82.84375 250.67673 83.796875Q251.4111 84.75 251.4111 86.375L251.4111 86.6875Q251.4111 89.1875 250.42673 90.328125Q249.44235 91.46875 247.45798 91.5L247.23923 91.5L247.23923 90.59375L247.4736 90.59375Q248.81735 90.5625 249.5361 89.890625Q250.25485 89.21875 250.31735 87.75ZM248.64548 87.75Q249.19235 87.75 249.64548 87.421875Q250.11423 87.078125 250.33298 86.59375L250.33298 86.15625Q250.33298 85.09375 249.86423 84.421875Q249.39548 83.75 248.69235 83.75Q247.9736 83.75 247.5361 84.296875Q247.11423 84.84375 247.11423 85.75Q247.11423 86.625 247.52048 87.1875Q247.94235 87.75 248.64548 87.75Z" fill-rule="nonzero"/><path fill="#ffffff" d="M209.73923 86.703125L210.55173 86.703125Q211.33298 86.6875 211.77048 86.296875Q212.20798 85.90625 212.20798 85.234375Q212.20798 83.734375 210.70798 83.734375Q210.00485 83.734375 209.58298 84.140625Q209.17673 84.546875 209.17673 85.203125L208.08298 85.203125Q208.08298 84.1875 208.81735 83.515625Q209.56735 82.84375 210.70798 82.84375Q211.9111 82.84375 212.5986 83.484375Q213.2861 84.125 213.2861 85.265625Q213.2861 85.828125 212.92673 86.34375Q212.56735 86.859375 211.94235 87.125Q212.64548 87.34375 213.02048 87.859375Q213.4111 88.375 213.4111 89.125Q213.4111 90.265625 212.6611 90.953125Q211.9111 91.625 210.70798 91.625Q209.52048 91.625 208.75485 90.96875Q208.00485 90.3125 208.00485 89.25L209.0986 89.25Q209.0986 89.921875 209.5361 90.328125Q209.9736 90.734375 210.7236 90.734375Q211.50485 90.734375 211.9111 90.328125Q212.33298 89.90625 212.33298 89.140625Q212.33298 88.40625 211.87985 88.015625Q211.42673 87.609375 210.55173 87.59375L209.73923 87.59375L209.73923 86.703125ZM220.3486 85.1875Q220.3486 85.828125 220.00485 86.328125Q219.6611 86.828125 219.0986 87.109375Q219.75485 87.390625 220.14548 87.953125Q220.5361 88.5 220.5361 89.203125Q220.5361 90.296875 219.7861 90.96875Q219.05173 91.625 217.83298 91.625Q216.5986 91.625 215.8486 90.96875Q215.11423 90.296875 215.11423 89.203125Q215.11423 88.5 215.48923 87.953125Q215.86423 87.390625 216.5361 87.109375Q215.9736 86.828125 215.64548 86.328125Q215.31735 85.828125 215.31735 85.1875Q215.31735 84.109375 216.00485 83.484375Q216.69235 82.84375 217.83298 82.84375Q218.95798 82.84375 219.64548 83.484375Q220.3486 84.109375 220.3486 85.1875ZM219.45798 89.171875Q219.45798 88.453125 219.00485 88.015625Q218.55173 87.5625 217.81735 87.5625Q217.08298 87.5625 216.62985 88.015625Q216.19235 88.453125 216.19235 89.1875Q216.19235 89.90625 216.62985 90.328125Q217.06735 90.734375 217.83298 90.734375Q218.58298 90.734375 219.02048 90.3125Q219.45798 89.890625 219.45798 89.171875ZM217.83298 83.734375Q217.19235 83.734375 216.7861 84.140625Q216.39548 84.53125 216.39548 85.21875Q216.39548 85.859375 216.7861 86.265625Q217.17673 86.671875 217.81735 86.671875Q218.4736 86.671875 218.86423 86.265625Q219.25485 85.859375 219.25485 85.21875Q219.25485 84.5625 218.8486 84.15625Q218.44235 83.734375 217.83298 83.734375ZM227.75485 91.5L222.1611 91.5L222.1611 90.71875L225.11423 87.4375Q225.77048 86.6875 226.02048 86.234375Q226.27048 85.765625 226.27048 85.265625Q226.27048 84.59375 225.86423 84.171875Q225.4736 83.734375 224.7861 83.734375Q223.98923 83.734375 223.5361 84.203125Q223.08298 84.65625 223.08298 85.484375L222.00485 85.484375Q222.00485 84.296875 222.75485 83.578125Q223.52048 82.84375 224.7861 82.84375Q225.98923 82.84375 226.67673 83.46875Q227.36423 84.09375 227.36423 85.140625Q227.36423 86.390625 225.75485 88.140625L223.4736 90.609375L227.75485 90.609375L227.75485 91.5ZM229.30173 90.9375Q229.30173 90.65625 229.45798 90.46875Q229.62985 90.28125 229.95798 90.28125Q230.30173 90.28125 230.4736 90.46875Q230.64548 90.65625 230.64548 90.9375Q230.64548 91.203125 230.4736 91.390625Q230.30173 91.5625 229.95798 91.5625Q229.62985 91.5625 229.45798 91.390625Q229.30173 91.203125 229.30173 90.9375ZM235.7236 91.5L234.64548 91.5L234.64548 84.28125L232.45798 85.078125L232.45798 84.09375L235.56735 82.921875L235.7236 82.921875L235.7236 91.5ZM243.42673 82.96875L243.42673 83.875L243.2236 83.875Q241.95798 83.90625 241.20798 84.640625Q240.45798 85.359375 240.33298 86.671875Q241.02048 85.90625 242.17673 85.90625Q243.2861 85.90625 243.95798 86.6875Q244.62985 87.46875 244.62985 88.71875Q244.62985 90.03125 243.9111 90.828125Q243.19235 91.625 241.9736 91.625Q240.75485 91.625 239.98923 90.6875Q239.23923 89.734375 239.23923 88.25L239.23923 87.84375Q239.23923 85.484375 240.23923 84.234375Q241.23923 82.984375 243.2236 82.96875L243.42673 82.96875ZM242.00485 86.8125Q241.44235 86.8125 240.9736 87.140625Q240.50485 87.46875 240.31735 87.984375L240.31735 88.375Q240.31735 89.4375 240.7861 90.078125Q241.27048 90.71875 241.9736 90.71875Q242.70798 90.71875 243.12985 90.1875Q243.55173 89.640625 243.55173 88.765625Q243.55173 87.890625 243.12985 87.359375Q242.70798 86.8125 242.00485 86.8125ZM250.31735 87.75Q249.98923 88.15625 249.50485 88.40625Q249.0361 88.640625 248.4736 88.640625Q247.73923 88.640625 247.19235 88.28125Q246.64548 87.921875 246.3486 87.265625Q246.05173 86.59375 246.05173 85.796875Q246.05173 84.953125 246.36423 84.265625Q246.69235 83.578125 247.2861 83.21875Q247.89548 82.84375 248.69235 82.84375Q249.95798 82.84375 250.67673 83.796875Q251.4111 84.75 251.4111 86.375L251.4111 86.6875Q251.4111 89.1875 250.42673 90.328125Q249.44235 91.46875 247.45798 91.5L247.23923 91.5L247.23923 90.59375L247.4736 90.59375Q248.81735 90.5625 249.5361 89.890625Q250.25485 89.21875 250.31735 87.75ZM248.64548 87.75Q249.19235 87.75 249.64548 87.421875Q250.11423 87.078125 250.33298 86.59375L250.33298 86.15625Q250.33298 85.09375 249.86423 84.421875Q249.39548 83.75 248.69235 83.75Q247.9736 83.75 247.5361 84.296875Q247.11423 84.84375 247.11423 85.75Q247.11423 86.625 247.52048 87.1875Q247.94235 87.75 248.64548 87.75Z" fill-rule="nonzero"/><path stroke="#4285f4" stroke-width="3.0" stroke-linejoin="round" stroke-linecap="round" d="M194.91882 131.70312L195.73132 131.70312Q196.51257 131.6875 196.95007 131.29688Q197.38757 130.90625 197.38757 130.23438Q197.38757 128.73438 195.88757 128.73438Q195.18445 128.73438 194.76257 129.14062Q194.35632 129.54688 194.35632 130.20312L193.26257 130.20312Q193.26257 129.1875 193.99695 128.51562Q194.74695 127.84375 195.88757 127.84375Q197.0907 127.84375 197.7782 128.48438Q198.4657 129.125 198.4657 130.26562Q198.4657 130.82812 198.10632 131.34375Q197.74695 131.85938 197.12195 132.125Q197.82507 132.34375 198.20007 132.85938Q198.5907 133.375 198.5907 134.125Q198.5907 135.26562 197.8407 135.95312Q197.0907 136.625 195.88757 136.625Q194.70007 136.625 193.93445 135.96875Q193.18445 135.3125 193.18445 134.25L194.2782 134.25Q194.2782 134.92188 194.7157 135.32812Q195.1532 135.73438 195.9032 135.73438Q196.68445 135.73438 197.0907 135.32812Q197.51257 134.90625 197.51257 134.14062Q197.51257 133.40625 197.05945 133.01562Q196.60632 132.60938 195.73132 132.59375L194.91882 132.59375L194.91882 131.70312ZM204.91882 133.64062L206.10632 133.64062L206.10632 134.51562L204.91882 134.51562L204.91882 136.5L203.8407 136.5L203.8407 134.51562L199.95007 134.51562L199.95007 133.875L203.76257 127.96875L204.91882 127.96875L204.91882 133.64062ZM201.18445 133.64062L203.8407 133.64062L203.8407 129.45312L203.70007 129.6875L201.18445 133.64062ZM208.91882 131.70312L209.73132 131.70312Q210.51257 131.6875 210.95007 131.29688Q211.38757 130.90625 211.38757 130.23438Q211.38757 128.73438 209.88757 128.73438Q209.18445 128.73438 208.76257 129.14062Q208.35632 129.54688 208.35632 130.20312L207.26257 130.20312Q207.26257 129.1875 207.99695 128.51562Q208.74695 127.84375 209.88757 127.84375Q211.0907 127.84375 211.7782 128.48438Q212.4657 129.125 212.4657 130.26562Q212.4657 130.82812 212.10632 131.34375Q211.74695 131.85938 211.12195 132.125Q211.82507 132.34375 212.20007 132.85938Q212.5907 133.375 212.5907 134.125Q212.5907 135.26562 211.8407 135.95312Q211.0907 136.625 209.88757 136.625Q208.70007 136.625 207.93445 135.96875Q207.18445 135.3125 207.18445 134.25L208.2782 134.25Q208.2782 134.92188 208.7157 135.32812Q209.1532 135.73438 209.9032 135.73438Q210.68445 135.73438 211.0907 135.32812Q211.51257 134.90625 211.51257 134.14062Q211.51257 133.40625 211.05945 133.01562Q210.60632 132.60938 209.73132 132.59375L208.91882 132.59375L208.91882 131.70312ZM214.48132 135.9375Q214.48132 135.65625 214.63757 135.46875Q214.80945 135.28125 215.13757 135.28125Q215.48132 135.28125 215.6532 135.46875Q215.82507 135.65625 215.82507 135.9375Q215.82507 136.20312 215.6532 136.39062Q215.48132 136.5625 215.13757 136.5625Q214.80945 136.5625 214.63757 136.39062Q214.48132 136.20312 214.48132 135.9375ZM218.91882 131.70312L219.73132 131.70312Q220.51257 131.6875 220.95007 131.29688Q221.38757 130.90625 221.38757 130.23438Q221.38757 128.73438 219.88757 128.73438Q219.18445 128.73438 218.76257 129.14062Q218.35632 129.54688 218.35632 130.20312L217.26257 130.20312Q217.26257 129.1875 217.99695 128.51562Q218.74695 127.84375 219.88757 127.84375Q221.0907 127.84375 221.7782 128.48438Q222.4657 129.125 222.4657 130.26562Q222.4657 130.82812 222.10632 131.34375Q221.74695 131.85938 221.12195 132.125Q221.82507 132.34375 222.20007 132.85938Q222.5907 133.375 222.5907 134.125Q222.5907 135.26562 221.8407 135.95312Q221.0907 136.625 219.88757 136.625Q218.70007 136.625 217.93445 135.96875Q217.18445 135.3125 217.18445 134.25L218.2782 134.25Q218.2782 134.92188 218.7157 135.32812Q219.1532 135.73438 219.9032 135.73438Q220.68445 135.73438 221.0907 135.32812Q221.51257 134.90625 221.51257 134.14062Q221.51257 133.40625 221.05945 133.01562Q220.60632 132.60938 219.73132 132.59375L218.91882 132.59375L218.91882 131.70312ZM228.60632 127.96875L228.60632 128.875L228.4032 128.875Q227.13757 128.90625 226.38757 129.64062Q225.63757 130.35938 225.51257 131.67188Q226.20007 130.90625 227.35632 130.90625Q228.4657 130.90625 229.13757 131.6875Q229.80945 132.46875 229.80945 133.71875Q229.80945 135.03125 229.0907 135.82812Q228.37195 136.625 227.1532 136.625Q225.93445 136.625 225.16882 135.6875Q224.41882 134.73438 224.41882 133.25L224.41882 132.84375Q224.41882 130.48438 225.41882 129.23438Q226.41882 127.984375 228.4032 127.96875L228.60632 127.96875ZM227.18445 131.8125Q226.62195 131.8125 226.1532 132.14062Q225.68445 132.46875 225.49695 132.98438L225.49695 133.375Q225.49695 134.4375 225.9657 135.07812Q226.45007 135.71875 227.1532 135.71875Q227.88757 135.71875 228.30945 135.1875Q228.73132 134.64062 228.73132 133.76562Q228.73132 132.89062 228.30945 132.35938Q227.88757 131.8125 227.18445 131.8125ZM235.91882 133.64062L237.10632 133.64062L237.10632 134.51562L235.91882 134.51562L235.91882 136.5L234.8407 136.5L234.8407 134.51562L230.95007 134.51562L230.95007 133.875L234.76257 127.96875L235.91882 127.96875L235.91882 133.64062ZM232.18445 133.64062L234.8407 133.64062L234.8407 129.45312L234.70007 129.6875L232.18445 133.64062Z" fill-rule="nonzero"/><path fill="#ffffff" d="M194.91882 131.70312L195.73132 131.70312Q196.51257 131.6875 196.95007 131.29688Q197.38757 130.90625 197.38757 130.23438Q197.38757 128.73438 195.88757 128.73438Q195.18445 128.73438 194.76257 129.14062Q194.35632 129.54688 194.35632 130.20312L193.26257 130.20312Q193.26257 129.1875 193.99695 128.51562Q194.74695 127.84375 195.88757 127.84375Q197.0907 127.84375 197.7782 128.48438Q198.4657 129.125 198.4657 130.26562Q198.4657 130.82812 198.10632 131.34375Q197.74695 131.85938 197.12195 132.125Q197.82507 132.34375 198.20007 132.85938Q198.5907 133.375 198.5907 134.125Q198.5907 135.26562 197.8407 135.95312Q197.0907 136.625 195.88757 136.625Q194.70007 136.625 193.93445 135.96875Q193.18445 135.3125 193.18445 134.25L194.2782 134.25Q194.2782 134.92188 194.7157 135.32812Q195.1532 135.73438 195.9032 135.73438Q196.68445 135.73438 197.0907 135.32812Q197.51257 134.90625 197.51257 134.14062Q197.51257 133.40625 197.05945 133.01562Q196.60632 132.60938 195.73132 132.59375L194.91882 132.59375L194.91882 131.70312ZM204.91882 133.64062L206.10632 133.64062L206.10632 134.51562L204.91882 134.51562L204.91882 136.5L203.8407 136.5L203.8407 134.51562L199.95007 134.51562L199.95007 133.875L203.76257 127.96875L204.91882 127.96875L204.91882 133.64062ZM201.18445 133.64062L203.8407 133.64062L203.8407 129.45312L203.70007 129.6875L201.18445 133.64062ZM208.91882 131.70312L209.73132 131.70312Q210.51257 131.6875 210.95007 131.29688Q211.38757 130.90625 211.38757 130.23438Q211.38757 128.73438 209.88757 128.73438Q209.18445 128.73438 208.76257 129.14062Q208.35632 129.54688 208.35632 130.20312L207.26257 130.20312Q207.26257 129.1875 207.99695 128.51562Q208.74695 127.84375 209.88757 127.84375Q211.0907 127.84375 211.7782 128.48438Q212.4657 129.125 212.4657 130.26562Q212.4657 130.82812 212.10632 131.34375Q211.74695 131.85938 211.12195 132.125Q211.82507 132.34375 212.20007 132.85938Q212.5907 133.375 212.5907 134.125Q212.5907 135.26562 211.8407 135.95312Q211.0907 136.625 209.88757 136.625Q208.70007 136.625 207.93445 135.96875Q207.18445 135.3125 207.18445 134.25L208.2782 134.25Q208.2782 134.92188 208.7157 135.32812Q209.1532 135.73438 209.9032 135.73438Q210.68445 135.73438 211.0907 135.32812Q211.51257 134.90625 211.51257 134.14062Q211.51257 133.40625 211.05945 133.01562Q210.60632 132.60938 209.73132 132.59375L208.91882 132.59375L208.91882 131.70312ZM214.48132 135.9375Q214.48132 135.65625 214.63757 135.46875Q214.80945 135.28125 215.13757 135.28125Q215.48132 135.28125 215.6532 135.46875Q215.82507 135.65625 215.82507 135.9375Q215.82507 136.20312 215.6532 136.39062Q215.48132 136.5625 215.13757 136.5625Q214.80945 136.5625 214.63757 136.39062Q214.48132 136.20312 214.48132 135.9375ZM218.91882 131.70312L219.73132 131.70312Q220.51257 131.6875 220.95007 131.29688Q221.38757 130.90625 221.38757 130.23438Q221.38757 128.73438 219.88757 128.73438Q219.18445 128.73438 218.76257 129.14062Q218.35632 129.54688 218.35632 130.20312L217.26257 130.20312Q217.26257 129.1875 217.99695 128.51562Q218.74695 127.84375 219.88757 127.84375Q221.0907 127.84375 221.7782 128.48438Q222.4657 129.125 222.4657 130.26562Q222.4657 130.82812 222.10632 131.34375Q221.74695 131.85938 221.12195 132.125Q221.82507 132.34375 222.20007 132.85938Q222.5907 133.375 222.5907 134.125Q222.5907 135.26562 221.8407 135.95312Q221.0907 136.625 219.88757 136.625Q218.70007 136.625 217.93445 135.96875Q217.18445 135.3125 217.18445 134.25L218.2782 134.25Q218.2782 134.92188 218.7157 135.32812Q219.1532 135.73438 219.9032 135.73438Q220.68445 135.73438 221.0907 135.32812Q221.51257 134.90625 221.51257 134.14062Q221.51257 133.40625 221.05945 133.01562Q220.60632 132.60938 219.73132 132.59375L218.91882 132.59375L218.91882 131.70312ZM228.60632 127.96875L228.60632 128.875L228.4032 128.875Q227.13757 128.90625 226.38757 129.64062Q225.63757 130.35938 225.51257 131.67188Q226.20007 130.90625 227.35632 130.90625Q228.4657 130.90625 229.13757 131.6875Q229.80945 132.46875 229.80945 133.71875Q229.80945 135.03125 229.0907 135.82812Q228.37195 136.625 227.1532 136.625Q225.93445 136.625 225.16882 135.6875Q224.41882 134.73438 224.41882 133.25L224.41882 132.84375Q224.41882 130.48438 225.41882 129.23438Q226.41882 127.984375 228.4032 127.96875L228.60632 127.96875ZM227.18445 131.8125Q226.62195 131.8125 226.1532 132.14062Q225.68445 132.46875 225.49695 132.98438L225.49695 133.375Q225.49695 134.4375 225.9657 135.07812Q226.45007 135.71875 227.1532 135.71875Q227.88757 135.71875 228.30945 135.1875Q228.73132 134.64062 228.73132 133.76562Q228.73132 132.89062 228.30945 132.35938Q227.88757 131.8125 227.18445 131.8125ZM235.91882 133.64062L237.10632 133.64062L237.10632 134.51562L235.91882 134.51562L235.91882 136.5L234.8407 136.5L234.8407 134.51562L230.95007 134.51562L230.95007 133.875L234.76257 127.96875L235.91882 127.96875L235.91882 133.64062ZM232.18445 133.64062L234.8407 133.64062L234.8407 129.45312L234.70007 129.6875L232.18445 133.64062Z" fill-rule="nonzero"/><path fill="#000000" d="M315.92188 211.7L315.92188 203.10625L318.89062 203.10625Q319.89062 203.10625 320.42188 203.23125Q321.15625 203.40312 321.67188 203.84062Q322.35938 204.41875 322.6875 205.325Q323.03125 206.21562 323.03125 207.35625Q323.03125 208.34062 322.79688 209.09062Q322.57812 209.84062 322.21875 210.34062Q321.85938 210.84062 321.42188 211.12187Q321.0 211.40312 320.40625 211.55937Q319.8125 211.7 319.03125 211.7L315.92188 211.7ZM317.0625 210.68437L318.89062 210.68437Q319.75 210.68437 320.23438 210.52812Q320.71875 210.37187 321.0 210.075Q321.40625 209.68437 321.625 208.99687Q321.85938 208.30937 321.85938 207.34062Q321.85938 205.99687 321.40625 205.27812Q320.96875 204.54375 320.34375 204.29375Q319.875 204.12187 318.875 204.12187L317.0625 204.12187L317.0625 210.68437ZM328.875 211.7L328.875 210.77812Q328.14062 211.84062 326.89062 211.84062Q326.34375 211.84062 325.85938 211.6375Q325.39062 211.41875 325.15625 211.10625Q324.92188 210.77812 324.82812 210.30937Q324.76562 210.0125 324.76562 209.325L324.76562 205.48125L325.82812 205.48125L325.82812 208.93437Q325.82812 209.74687 325.89062 210.04375Q325.98438 210.45 326.29688 210.7Q326.625 210.93437 327.10938 210.93437Q327.57812 210.93437 327.98438 210.7Q328.40625 210.45 328.57812 210.02812Q328.76562 209.60625 328.76562 208.80937L328.76562 205.48125L329.8125 205.48125L329.8125 211.7L328.875 211.7ZM331.78125 211.7L331.78125 205.48125L332.73438 205.48125L332.73438 206.41875Q333.09375 205.7625 333.39062 205.55937Q333.70312 205.34062 334.07812 205.34062Q334.60938 205.34062 335.15625 205.66875L334.79688 206.65312Q334.40625 206.41875 334.03125 206.41875Q333.67188 206.41875 333.39062 206.6375Q333.125 206.84062 333.01562 207.21562Q332.82812 207.77812 332.82812 208.43437L332.82812 211.7L331.78125 211.7ZM339.85938 210.93437Q339.26562 211.43437 338.71875 211.6375Q338.1875 211.84062 337.5625 211.84062Q336.53125 211.84062 335.98438 211.34062Q335.4375 210.84062 335.4375 210.05937Q335.4375 209.60625 335.64062 209.23125Q335.84375 208.84062 336.1875 208.62187Q336.53125 208.3875 336.95312 208.27812Q337.25 208.18437 337.89062 208.10625Q339.15625 207.96562 339.76562 207.74687Q339.76562 207.52812 339.76562 207.48125Q339.76562 206.825 339.46875 206.55937Q339.0625 206.21562 338.26562 206.21562Q337.53125 206.21562 337.17188 206.48125Q336.8125 206.73125 336.64062 207.3875L335.60938 207.24687Q335.75 206.59062 336.07812 206.18437Q336.40625 205.77812 337.01562 205.55937Q337.625 205.34062 338.42188 205.34062Q339.21875 205.34062 339.71875 205.52812Q340.21875 205.71562 340.45312 205.99687Q340.6875 206.27812 340.78125 206.71562Q340.82812 206.98125 340.82812 207.68437L340.82812 209.09062Q340.82812 210.55937 340.89062 210.95Q340.96875 211.34062 341.17188 211.7L340.0625 211.7Q339.90625 211.37187 339.85938 210.93437ZM339.76562 208.575Q339.1875 208.80937 338.04688 208.98125Q337.39062 209.075 337.125 209.2Q336.85938 209.30937 336.70312 209.52812Q336.5625 209.74687 336.5625 210.02812Q336.5625 210.45 336.875 210.73125Q337.20312 211.0125 337.8125 211.0125Q338.42188 211.0125 338.89062 210.74687Q339.375 210.48125 339.59375 210.0125Q339.76562 209.65312 339.76562 208.96562L339.76562 208.575ZM345.09375 210.7625L345.25 211.68437Q344.79688 211.77812 344.45312 211.77812Q343.875 211.77812 343.5625 211.60625Q343.25 211.41875 343.10938 211.12187Q342.98438 210.825 342.98438 209.87187L342.98438 206.29375L342.21875 206.29375L342.21875 205.48125L342.98438 205.48125L342.98438 203.93437L344.03125 203.30937L344.03125 205.48125L345.09375 205.48125L345.09375 206.29375L344.03125 206.29375L344.03125 209.93437Q344.03125 210.3875 344.07812 210.5125Q344.14062 210.6375 344.26562 210.71562Q344.39062 210.79375 344.625 210.79375Q344.8125 210.79375 345.09375 210.7625ZM345.79688 204.325L345.79688 203.10625L346.85938 203.10625L346.85938 204.325L345.79688 204.325ZM345.79688 211.7L345.79688 205.48125L346.85938 205.48125L346.85938 211.7L345.79688 211.7ZM348.40625 208.59062Q348.40625 206.85625 349.35938 206.02812Q350.15625 205.34062 351.3125 205.34062Q352.59375 205.34062 353.40625 206.18437Q354.23438 207.0125 354.23438 208.49687Q354.23438 209.7 353.875 210.3875Q353.51562 211.075 352.8125 211.46562Q352.125 211.84062 351.3125 211.84062Q350.01562 211.84062 349.20312 211.0125Q348.40625 210.16875 348.40625 208.59062ZM349.48438 208.59062Q349.48438 209.77812 350.0 210.37187Q350.53125 210.96562 351.3125 210.96562Q352.10938 210.96562 352.625 210.37187Q353.14062 209.77812 353.14062 208.55937Q353.14062 207.40312 352.60938 206.80937Q352.09375 206.21562 351.3125 206.21562Q350.53125 206.21562 350.0 206.80937Q349.48438 207.3875 349.48438 208.59062ZM355.79688 211.7L355.79688 205.48125L356.73438 205.48125L356.73438 206.35625Q357.42188 205.34062 358.71875 205.34062Q359.28125 205.34062 359.75 205.54375Q360.23438 205.74687 360.46875 206.075Q360.70312 206.40312 360.79688 206.84062Q360.84375 207.1375 360.84375 207.87187L360.84375 211.7L359.79688 211.7L359.79688 207.91875Q359.79688 207.2625 359.67188 206.95Q359.54688 206.6375 359.23438 206.45Q358.92188 206.24687 358.5 206.24687Q357.82812 206.24687 357.32812 206.68437Q356.84375 207.10625 356.84375 208.29375L356.84375 211.7L355.79688 211.7ZM365.8125 214.09062L365.8125 203.10625L368.14062 203.10625L368.14062 203.98125L366.875 203.98125L366.875 213.21562L368.14062 213.21562L368.14062 214.09062L365.8125 214.09062ZM368.79688 211.7L368.79688 205.48125L369.73438 205.48125L369.73438 206.35625Q370.42188 205.34062 371.71875 205.34062Q372.28125 205.34062 372.75 205.54375Q373.23438 205.74687 373.46875 206.075Q373.70312 206.40312 373.79688 206.84062Q373.84375 207.1375 373.84375 207.87187L373.84375 211.7L372.79688 211.7L372.79688 207.91875Q372.79688 207.2625 372.67188 206.95Q372.54688 206.6375 372.23438 206.45Q371.92188 206.24687 371.5 206.24687Q370.82812 206.24687 370.32812 206.68437Q369.84375 207.10625 369.84375 208.29375L369.84375 211.7L368.79688 211.7ZM375.375 209.84062L376.40625 209.68437Q376.5 210.30937 376.89062 210.6375Q377.29688 210.96562 378.03125 210.96562Q378.75 210.96562 379.09375 210.68437Q379.45312 210.3875 379.45312 209.98125Q379.45312 209.62187 379.14062 209.41875Q378.92188 209.27812 378.0625 209.05937Q376.90625 208.7625 376.45312 208.55937Q376.01562 208.34062 375.78125 207.96562Q375.54688 207.59062 375.54688 207.12187Q375.54688 206.71562 375.73438 206.35625Q375.92188 205.99687 376.25 205.7625Q376.5 205.59062 376.92188 205.46562Q377.34375 205.34062 377.84375 205.34062Q378.5625 205.34062 379.10938 205.55937Q379.67188 205.7625 379.9375 206.12187Q380.20312 206.48125 380.29688 207.075L379.26562 207.21562Q379.20312 206.74687 378.85938 206.48125Q378.53125 206.2 377.90625 206.2Q377.1875 206.2 376.875 206.45Q376.5625 206.68437 376.5625 207.0125Q376.5625 207.21562 376.6875 207.37187Q376.82812 207.54375 377.09375 207.65312Q377.25 207.71562 378.03125 207.91875Q379.15625 208.23125 379.59375 208.41875Q380.03125 208.60625 380.28125 208.96562Q380.53125 209.325 380.53125 209.87187Q380.53125 210.40312 380.21875 210.87187Q379.92188 211.325 379.34375 211.59062Q378.76562 211.84062 378.03125 211.84062Q376.8125 211.84062 376.17188 211.34062Q375.54688 210.825 375.375 209.84062ZM384.5625 214.09062L382.23438 214.09062L382.23438 213.21562L383.5 213.21562L383.5 203.98125L382.23438 203.98125L382.23438 203.10625L384.5625 203.10625L384.5625 214.09062Z" fill-rule="nonzero"/><path fill="#000000" d="M33.878124 41.61847Q33.878124 39.477844 35.01875 38.27472Q36.175 37.05597 37.9875 37.05597Q39.190624 37.05597 40.14375 37.634094Q41.096874 38.196594 41.596874 39.21222Q42.096874 40.227844 42.096874 41.52472Q42.096874 42.821594 41.565624 43.852844Q41.034374 44.884094 40.065624 45.415344Q39.1125 45.946594 37.9875 45.946594Q36.76875 45.946594 35.815624 45.36847Q34.8625 44.77472 34.3625 43.77472Q33.878124 42.759094 33.878124 41.61847ZM35.05 41.634094Q35.05 43.196594 35.878124 44.08722Q36.721874 44.977844 37.9875 44.977844Q39.26875 44.977844 40.096874 44.08722Q40.925 43.18097 40.925 41.509094Q40.925 40.46222 40.565624 39.68097Q40.221874 38.89972 39.534374 38.477844Q38.846874 38.040344 38.003124 38.040344Q36.8 38.040344 35.925 38.86847Q35.05 39.696594 35.05 41.634094ZM43.346874 45.80597L43.346874 40.39972L42.409374 40.39972L42.409374 39.58722L43.346874 39.58722L43.346874 38.915344Q43.346874 38.290344 43.45625 37.99347Q43.6125 37.571594 43.9875 37.321594Q44.378124 37.071594 45.065624 37.071594Q45.51875 37.071594 46.05 37.18097L45.89375 38.08722Q45.565624 38.040344 45.26875 38.040344Q44.784374 38.040344 44.58125 38.24347Q44.39375 38.446594 44.39375 39.009094L44.39375 39.58722L45.6125 39.58722L45.6125 40.39972L44.39375 40.39972L44.39375 45.80597L43.346874 45.80597ZM46.346874 45.80597L46.346874 40.39972L45.409374 40.39972L45.409374 39.58722L46.346874 39.58722L46.346874 38.915344Q46.346874 38.290344 46.45625 37.99347Q46.6125 37.571594 46.9875 37.321594Q47.378124 37.071594 48.065624 37.071594Q48.51875 37.071594 49.05 37.18097L48.89375 38.08722Q48.565624 38.040344 48.26875 38.040344Q47.784374 38.040344 47.58125 38.24347Q47.39375 38.446594 47.39375 39.009094L47.39375 39.58722L48.6125 39.58722L48.6125 40.39972L47.39375 40.39972L47.39375 45.80597L46.346874 45.80597ZM49.096874 38.43097L49.096874 37.21222L50.159374 37.21222L50.159374 38.43097L49.096874 38.43097ZM49.096874 45.80597L49.096874 39.58722L50.159374 39.58722L50.159374 45.80597L49.096874 45.80597ZM56.159374 43.52472L57.190624 43.665344Q57.01875 44.727844 56.315624 45.33722Q55.6125 45.946594 54.596874 45.946594Q53.315624 45.946594 52.534374 45.11847Q51.76875 44.27472 51.76875 42.71222Q51.76875 41.71222 52.096874 40.96222Q52.440624 40.196594 53.1125 39.821594Q53.8 39.446594 54.6125 39.446594Q55.6125 39.446594 56.253124 39.96222Q56.909374 40.46222 57.096874 41.415344L56.065624 41.571594Q55.925 40.946594 55.55 40.634094Q55.175 40.30597 54.64375 40.30597Q53.846874 40.30597 53.346874 40.884094Q52.846874 41.446594 52.846874 42.68097Q52.846874 43.946594 53.33125 44.509094Q53.815624 45.071594 54.58125 45.071594Q55.20625 45.071594 55.6125 44.696594Q56.034374 44.321594 56.159374 43.52472ZM58.096874 38.43097L58.096874 37.21222L59.159374 37.21222L59.159374 38.43097L58.096874 38.43097ZM58.096874 45.80597L58.096874 39.58722L59.159374 39.58722L59.159374 45.80597L58.096874 45.80597ZM65.15938 45.040344Q64.56563 45.540344 64.01875 45.74347Q63.4875 45.946594 62.8625 45.946594Q61.83125 45.946594 61.284374 45.446594Q60.7375 44.946594 60.7375 44.165344Q60.7375 43.71222 60.940624 43.33722Q61.14375 42.946594 61.4875 42.727844Q61.83125 42.49347 62.253124 42.384094Q62.55 42.290344 63.190624 42.21222Q64.45625 42.071594 65.06563 41.852844Q65.06563 41.634094 65.06563 41.58722Q65.06563 40.93097 64.76875 40.665344Q64.3625 40.321594 63.565624 40.321594Q62.83125 40.321594 62.471874 40.58722Q62.1125 40.83722 61.940624 41.49347L60.909374 41.352844Q61.05 40.696594 61.378124 40.290344Q61.70625 39.884094 62.315624 39.665344Q62.925 39.446594 63.721874 39.446594Q64.51875 39.446594 65.01875 39.634094Q65.51875 39.821594 65.75313 40.102844Q65.9875 40.384094 66.08125 40.821594Q66.12813 41.08722 66.12813 41.790344L66.12813 43.196594Q66.12813 44.665344 66.19063 45.05597Q66.26875 45.446594 66.47188 45.80597L65.3625 45.80597Q65.20625 45.477844 65.15938 45.040344ZM65.06563 42.68097Q64.4875 42.915344 63.346874 43.08722Q62.690624 43.18097 62.425 43.30597Q62.159374 43.415344 62.003124 43.634094Q61.8625 43.852844 61.8625 44.134094Q61.8625 44.55597 62.175 44.83722Q62.503124 45.11847 63.1125 45.11847Q63.721874 45.11847 64.19063 44.852844Q64.675 44.58722 64.89375 44.11847Q65.06563 43.759094 65.06563 43.071594L65.06563 42.68097ZM68.06563 45.80597L68.06563 37.21222L69.12813 37.21222L69.12813 45.80597L68.06563 45.80597ZM74.22188 45.80597L74.22188 37.21222L77.19063 37.21222Q78.19063 37.21222 78.72188 37.33722Q79.45625 37.509094 79.97188 37.946594Q80.65938 38.52472 80.9875 39.43097Q81.33125 40.321594 81.33125 41.46222Q81.33125 42.446594 81.09688 43.196594Q80.87813 43.946594 80.51875 44.446594Q80.15938 44.946594 79.72188 45.227844Q79.3 45.509094 78.70625 45.665344Q78.1125 45.80597 77.33125 45.80597L74.22188 45.80597ZM75.3625 44.790344L77.19063 44.790344Q78.05 44.790344 78.53438 44.634094Q79.01875 44.477844 79.3 44.18097Q79.70625 43.790344 79.925 43.102844Q80.15938 42.415344 80.15938 41.446594Q80.15938 40.102844 79.70625 39.384094Q79.26875 38.64972 78.64375 38.39972Q78.175 38.227844 77.175 38.227844L75.3625 38.227844L75.3625 44.790344ZM83.08125 45.80597L83.08125 39.58722L84.03438 39.58722L84.03438 40.52472Q84.39375 39.86847 84.69063 39.665344Q85.00313 39.446594 85.37813 39.446594Q85.90938 39.446594 86.45625 39.77472L86.09688 40.759094Q85.70625 40.52472 85.33125 40.52472Q84.97188 40.52472 84.69063 40.74347Q84.425 40.946594 84.31563 41.321594Q84.12813 41.884094 84.12813 42.540344L84.12813 45.80597L83.08125 45.80597ZM87.09688 38.43097L87.09688 37.21222L88.15938 37.21222L88.15938 38.43097L87.09688 38.43097ZM87.09688 45.80597L87.09688 39.58722L88.15938 39.58722L88.15938 45.80597L87.09688 45.80597ZM91.81563 45.80597L89.45625 39.58722L90.56563 39.58722L91.90938 43.30597Q92.1125 43.915344 92.3 44.55597Q92.44063 44.071594 92.69063 43.384094L94.08125 39.58722L95.15938 39.58722L92.8 45.80597L91.81563 45.80597ZM99.34688 43.80597L100.44063 43.93097Q100.19063 44.884094 99.4875 45.415344Q98.78438 45.946594 97.70625 45.946594Q96.34688 45.946594 95.53438 45.102844Q94.7375 44.259094 94.7375 42.74347Q94.7375 41.18097 95.55 40.321594Q96.3625 39.446594 97.64375 39.446594Q98.89375 39.446594 99.675 40.290344Q100.47188 41.134094 100.47188 42.68097Q100.47188 42.77472 100.47188 42.96222L95.83125 42.96222Q95.89375 43.99347 96.40938 44.540344Q96.925 45.071594 97.70625 45.071594Q98.28438 45.071594 98.69063 44.77472Q99.1125 44.46222 99.34688 43.80597ZM95.89375 42.102844L99.3625 42.102844Q99.3 41.30597 98.97188 40.915344Q98.45625 40.30597 97.65938 40.30597Q96.925 40.30597 96.425 40.790344Q95.94063 41.27472 95.89375 42.102844ZM102.08125 45.80597L102.08125 39.58722L103.03438 39.58722L103.03438 40.52472Q103.39375 39.86847 103.69063 39.665344Q104.00313 39.446594 104.37813 39.446594Q104.90938 39.446594 105.45625 39.77472L105.09688 40.759094Q104.70625 40.52472 104.33125 40.52472Q103.97188 40.52472 103.69063 40.74347Q103.425 40.946594 103.31563 41.321594Q103.12813 41.884094 103.12813 42.540344L103.12813 45.80597L102.08125 45.80597Z" fill-rule="nonzero"/><path fill="#000000" d="M12.221875 91.0L12.221875 82.40625L15.471875 82.40625Q16.315624 82.40625 16.76875 82.484375Q17.409374 82.59375 17.83125 82.890625Q18.26875 83.1875 18.51875 83.71875Q18.784374 84.25 18.784374 84.890625Q18.784374 85.984375 18.08125 86.75Q17.39375 87.5 15.565625 87.5L13.3625 87.5L13.3625 91.0L12.221875 91.0ZM13.3625 86.5L15.58125 86.5Q16.690624 86.5 17.14375 86.09375Q17.6125 85.671875 17.6125 84.921875Q17.6125 84.390625 17.33125 84.015625Q17.065624 83.625 16.628124 83.5Q16.33125 83.421875 15.565625 83.421875L13.3625 83.421875L13.3625 86.5ZM19.70625 87.890625Q19.70625 86.15625 20.659374 85.328125Q21.45625 84.640625 22.6125 84.640625Q23.89375 84.640625 24.70625 85.484375Q25.534374 86.3125 25.534374 87.796875Q25.534374 89.0 25.175 89.6875Q24.815624 90.375 24.1125 90.765625Q23.425 91.140625 22.6125 91.140625Q21.315624 91.140625 20.503124 90.3125Q19.70625 89.46875 19.70625 87.890625ZM20.784374 87.890625Q20.784374 89.078125 21.3 89.671875Q21.83125 90.265625 22.6125 90.265625Q23.409374 90.265625 23.925 89.671875Q24.440624 89.078125 24.440624 87.859375Q24.440624 86.703125 23.909374 86.109375Q23.39375 85.515625 22.6125 85.515625Q21.83125 85.515625 21.3 86.109375Q20.784374 86.6875 20.784374 87.890625ZM27.065624 91.0L27.065624 82.40625L28.128124 82.40625L28.128124 91.0L27.065624 91.0ZM30.05 93.390625L29.925 92.40625Q30.26875 92.5 30.534374 92.5Q30.878124 92.5 31.08125 92.375Q31.3 92.265625 31.440624 92.0625Q31.534374 91.890625 31.76875 91.265625Q31.784374 91.1875 31.8625 91.015625L29.4875 84.78125L30.628124 84.78125L31.925 88.375Q32.175 89.0625 32.378124 89.828125Q32.565624 89.09375 32.815624 88.40625L34.14375 84.78125L35.190624 84.78125L32.83125 91.109375Q32.440624 92.125 32.2375 92.515625Q31.95625 93.046875 31.58125 93.28125Q31.221874 93.53125 30.721874 93.53125Q30.425 93.53125 30.05 93.390625ZM35.096874 91.0L35.096874 84.78125L36.034374 84.78125L36.034374 85.65625Q36.33125 85.1875 36.815624 84.921875Q37.3 84.640625 37.925 84.640625Q38.6125 84.640625 39.05 84.921875Q39.503124 85.203125 39.675 85.71875Q40.425 84.640625 41.596874 84.640625Q42.534374 84.640625 43.01875 85.15625Q43.51875 85.65625 43.51875 86.734375L43.51875 91.0L42.471874 91.0L42.471874 87.078125Q42.471874 86.453125 42.3625 86.171875Q42.26875 85.890625 42.003124 85.71875Q41.7375 85.546875 41.3625 85.546875Q40.70625 85.546875 40.26875 85.984375Q39.846874 86.421875 39.846874 87.390625L39.846874 91.0L38.784374 91.0L38.784374 86.953125Q38.784374 86.25 38.51875 85.90625Q38.26875 85.546875 37.690624 85.546875Q37.2375 85.546875 36.8625 85.78125Q36.4875 86.015625 36.315624 86.46875Q36.14375 86.921875 36.14375 87.765625L36.14375 91.0L35.096874 91.0ZM45.70625 87.890625Q45.70625 86.15625 46.659374 85.328125Q47.45625 84.640625 48.6125 84.640625Q49.89375 84.640625 50.70625 85.484375Q51.534374 86.3125 51.534374 87.796875Q51.534374 89.0 51.175 89.6875Q50.815624 90.375 50.1125 90.765625Q49.425 91.140625 48.6125 91.140625Q47.315624 91.140625 46.503124 90.3125Q45.70625 89.46875 45.70625 87.890625ZM46.784374 87.890625Q46.784374 89.078125 47.3 89.671875Q47.83125 90.265625 48.6125 90.265625Q49.409374 90.265625 49.925 89.671875Q50.440624 89.078125 50.440624 87.859375Q50.440624 86.703125 49.909374 86.109375Q49.39375 85.515625 48.6125 85.515625Q47.83125 85.515625 47.3 86.109375Q46.784374 86.6875 46.784374 87.890625ZM53.08125 91.0L53.08125 84.78125L54.034374 84.78125L54.034374 85.71875Q54.39375 85.0625 54.690624 84.859375Q55.003124 84.640625 55.378124 84.640625Q55.909374 84.640625 56.45625 84.96875L56.096874 85.953125Q55.70625 85.71875 55.33125 85.71875Q54.971874 85.71875 54.690624 85.9375Q54.425 86.140625 54.315624 86.515625Q54.128124 87.078125 54.128124 87.734375L54.128124 91.0L53.08125 91.0ZM57.096874 93.390625L57.096874 84.78125L58.05 84.78125L58.05 85.578125Q58.39375 85.109375 58.815624 84.875Q59.253124 84.640625 59.8625 84.640625Q60.659374 84.640625 61.26875 85.046875Q61.878124 85.453125 62.175 86.203125Q62.4875 86.953125 62.4875 87.84375Q62.4875 88.796875 62.14375 89.5625Q61.815624 90.328125 61.159374 90.734375Q60.503124 91.140625 59.784374 91.140625Q59.253124 91.140625 58.83125 90.921875Q58.409374 90.6875 58.14375 90.359375L58.14375 93.390625L57.096874 93.390625ZM58.05 87.921875Q58.05 89.125 58.534374 89.703125Q59.01875 90.265625 59.70625 90.265625Q60.409374 90.265625 60.909374 89.671875Q61.409374 89.078125 61.409374 87.828125Q61.409374 86.640625 60.925 86.0625Q60.440624 85.46875 59.753124 85.46875Q59.08125 85.46875 58.565624 86.09375Q58.05 86.71875 58.05 87.921875ZM64.09688 91.0L64.09688 82.40625L65.14375 82.40625L65.14375 85.484375Q65.87813 84.640625 67.00313 84.640625Q67.70625 84.640625 68.20625 84.921875Q68.72188 85.1875 68.94063 85.671875Q69.15938 86.140625 69.15938 87.0625L69.15938 91.0L68.1125 91.0L68.1125 87.0625Q68.1125 86.265625 67.76875 85.90625Q67.425 85.546875 66.8 85.546875Q66.33125 85.546875 65.90938 85.796875Q65.50313 86.03125 65.31563 86.453125Q65.14375 86.859375 65.14375 87.59375L65.14375 91.0L64.09688 91.0ZM71.09688 83.625L71.09688 82.40625L72.15938 82.40625L72.15938 83.625L71.09688 83.625ZM71.09688 91.0L71.09688 84.78125L72.15938 84.78125L72.15938 91.0L71.09688 91.0ZM78.15938 88.71875L79.19063 88.859375Q79.01875 89.921875 78.31563 90.53125Q77.6125 91.140625 76.59688 91.140625Q75.31563 91.140625 74.53438 90.3125Q73.76875 89.46875 73.76875 87.90625Q73.76875 86.90625 74.09688 86.15625Q74.44063 85.390625 75.1125 85.015625Q75.8 84.640625 76.6125 84.640625Q77.6125 84.640625 78.25313 85.15625Q78.90938 85.65625 79.09688 86.609375L78.06563 86.765625Q77.925 86.140625 77.55 85.828125Q77.175 85.5 76.64375 85.5Q75.84688 85.5 75.34688 86.078125Q74.84688 86.640625 74.84688 87.875Q74.84688 89.140625 75.33125 89.703125Q75.81563 90.265625 76.58125 90.265625Q77.20625 90.265625 77.6125 89.890625Q78.03438 89.515625 78.15938 88.71875ZM88.8625 82.40625L90.00313 82.40625L90.00313 87.375Q90.00313 88.671875 89.70625 89.4375Q89.40938 90.1875 88.64375 90.671875Q87.87813 91.140625 86.64375 91.140625Q85.44063 91.140625 84.65938 90.734375Q83.89375 90.3125 83.56563 89.53125Q83.2375 88.734375 83.2375 87.375L83.2375 82.40625L84.37813 82.40625L84.37813 87.359375Q84.37813 88.484375 84.58125 89.015625Q84.8 89.546875 85.3 89.84375Q85.81563 90.125 86.55 90.125Q87.8 90.125 88.33125 89.5625Q88.8625 88.984375 88.8625 87.359375L88.8625 82.40625ZM91.675 89.140625L92.70625 88.984375Q92.8 89.609375 93.19063 89.9375Q93.59688 90.265625 94.33125 90.265625Q95.05 90.265625 95.39375 89.984375Q95.75313 89.6875 95.75313 89.28125Q95.75313 88.921875 95.44063 88.71875Q95.22188 88.578125 94.3625 88.359375Q93.20625 88.0625 92.75313 87.859375Q92.31563 87.640625 92.08125 87.265625Q91.84688 86.890625 91.84688 86.421875Q91.84688 86.015625 92.03438 85.65625Q92.22188 85.296875 92.55 85.0625Q92.8 84.890625 93.22188 84.765625Q93.64375 84.640625 94.14375 84.640625Q94.8625 84.640625 95.40938 84.859375Q95.97188 85.0625 96.2375 85.421875Q96.50313 85.78125 96.59688 86.375L95.56563 86.515625Q95.50313 86.046875 95.15938 85.78125Q94.83125 85.5 94.20625 85.5Q93.4875 85.5 93.175 85.75Q92.8625 85.984375 92.8625 86.3125Q92.8625 86.515625 92.9875 86.671875Q93.12813 86.84375 93.39375 86.953125Q93.55 87.015625 94.33125 87.21875Q95.45625 87.53125 95.89375 87.71875Q96.33125 87.90625 96.58125 88.265625Q96.83125 88.625 96.83125 89.171875Q96.83125 89.703125 96.51875 90.171875Q96.22188 90.625 95.64375 90.890625Q95.06563 91.140625 94.33125 91.140625Q93.1125 91.140625 92.47188 90.640625Q91.84688 90.125 91.675 89.140625ZM103.34688 89.0L104.44063 89.125Q104.19063 90.078125 103.4875 90.609375Q102.78438 91.140625 101.70625 91.140625Q100.34688 91.140625 99.53438 90.296875Q98.7375 89.453125 98.7375 87.9375Q98.7375 86.375 99.55 85.515625Q100.3625 84.640625 101.64375 84.640625Q102.89375 84.640625 103.675 85.484375Q104.47188 86.328125 104.47188 87.875Q104.47188 87.96875 104.47188 88.15625L99.83125 88.15625Q99.89375 89.1875 100.40938 89.734375Q100.925 90.265625 101.70625 90.265625Q102.28438 90.265625 102.69063 89.96875Q103.1125 89.65625 103.34688 89.0ZM99.89375 87.296875L103.3625 87.296875Q103.3 86.5 102.97188 86.109375Q102.45625 85.5 101.65938 85.5Q100.925 85.5 100.425 85.984375Q99.94063 86.46875 99.89375 87.296875Z" fill-rule="nonzero"/><path fill="#000000" d="M49.846874 133.4284L50.909374 133.33466Q50.9875 133.9909 51.26875 134.39716Q51.55 134.8034 52.128124 135.06903Q52.721874 135.31903 53.45625 135.31903Q54.096874 135.31903 54.596874 135.13153Q55.096874 134.9284 55.33125 134.60028Q55.58125 134.25653 55.58125 133.8659Q55.58125 133.45966 55.346874 133.16278Q55.1125 132.85028 54.58125 132.64716Q54.221874 132.50653 53.034374 132.22528Q51.8625 131.94403 51.39375 131.69403Q50.76875 131.3659 50.471874 130.89716Q50.175 130.41278 50.175 129.81903Q50.175 129.1784 50.534374 128.6159Q50.909374 128.03778 51.6125 127.75653Q52.33125 127.459656 53.190624 127.459656Q54.14375 127.459656 54.878124 127.772156Q55.6125 128.06903 56.003124 128.6784Q56.39375 129.27216 56.425 130.02216L55.33125 130.10028Q55.2375 129.28778 54.721874 128.88153Q54.221874 128.45966 53.2375 128.45966Q52.20625 128.45966 51.7375 128.83466Q51.26875 129.20966 51.26875 129.7409Q51.26875 130.20966 51.596874 130.50653Q51.925 130.8034 53.3 131.1159Q54.690624 131.4284 55.20625 131.66278Q55.95625 132.02216 56.315624 132.5534Q56.675 133.06903 56.675 133.77216Q56.675 134.45966 56.284374 135.06903Q55.89375 135.66278 55.159374 136.00653Q54.425 136.33466 53.503124 136.33466Q52.33125 136.33466 51.534374 136.00653Q50.753124 135.66278 50.3 134.97528Q49.8625 134.28778 49.846874 133.4284ZM60.39375 135.25653L60.55 136.1784Q60.096874 136.27216 59.753124 136.27216Q59.175 136.27216 58.8625 136.10028Q58.55 135.91278 58.409374 135.6159Q58.284374 135.31903 58.284374 134.3659L58.284374 130.78778L57.51875 130.78778L57.51875 129.97528L58.284374 129.97528L58.284374 128.4284L59.33125 127.803406L59.33125 129.97528L60.39375 129.97528L60.39375 130.78778L59.33125 130.78778L59.33125 134.4284Q59.33125 134.88153 59.378124 135.00653Q59.440624 135.13153 59.565624 135.20966Q59.690624 135.28778 59.925 135.28778Q60.1125 135.28778 60.39375 135.25653ZM65.15938 135.4284Q64.56563 135.9284 64.01875 136.13153Q63.4875 136.33466 62.8625 136.33466Q61.83125 136.33466 61.284374 135.83466Q60.7375 135.33466 60.7375 134.5534Q60.7375 134.10028 60.940624 133.72528Q61.14375 133.33466 61.4875 133.1159Q61.83125 132.88153 62.253124 132.77216Q62.55 132.6784 63.190624 132.60028Q64.45625 132.45966 65.06563 132.2409Q65.06563 132.02216 65.06563 131.97528Q65.06563 131.31903 64.76875 131.0534Q64.3625 130.70966 63.565624 130.70966Q62.83125 130.70966 62.471874 130.97528Q62.1125 131.22528 61.940624 131.88153L60.909374 131.7409Q61.05 131.08466 61.378124 130.6784Q61.70625 130.27216 62.315624 130.0534Q62.925 129.83466 63.721874 129.83466Q64.51875 129.83466 65.01875 130.02216Q65.51875 130.20966 65.75313 130.4909Q65.9875 130.77216 66.08125 131.20966Q66.12813 131.47528 66.12813 132.1784L66.12813 133.58466Q66.12813 135.0534 66.19063 135.44403Q66.26875 135.83466 66.47188 136.19403L65.3625 136.19403Q65.20625 135.8659 65.15938 135.4284ZM65.06563 133.06903Q64.4875 133.3034 63.346874 133.47528Q62.690624 133.56903 62.425 133.69403Q62.159374 133.8034 62.003124 134.02216Q61.8625 134.2409 61.8625 134.52216Q61.8625 134.94403 62.175 135.22528Q62.503124 135.50653 63.1125 135.50653Q63.721874 135.50653 64.19063 135.2409Q64.675 134.97528 64.89375 134.50653Q65.06563 134.14716 65.06563 133.45966L65.06563 133.06903ZM70.39375 135.25653L70.55 136.1784Q70.09688 136.27216 69.75313 136.27216Q69.175 136.27216 68.8625 136.10028Q68.55 135.91278 68.40938 135.6159Q68.28438 135.31903 68.28438 134.3659L68.28438 130.78778L67.51875 130.78778L67.51875 129.97528L68.28438 129.97528L68.28438 128.4284L69.33125 127.803406L69.33125 129.97528L70.39375 129.97528L70.39375 130.78778L69.33125 130.78778L69.33125 134.4284Q69.33125 134.88153 69.37813 135.00653Q69.44063 135.13153 69.56563 135.20966Q69.69063 135.28778 69.925 135.28778Q70.1125 135.28778 70.39375 135.25653ZM71.09688 128.81903L71.09688 127.60028L72.15938 127.60028L72.15938 128.81903L71.09688 128.81903ZM71.09688 136.19403L71.09688 129.97528L72.15938 129.97528L72.15938 136.19403L71.09688 136.19403ZM78.15938 133.91278L79.19063 134.0534Q79.01875 135.1159 78.31563 135.72528Q77.6125 136.33466 76.59688 136.33466Q75.31563 136.33466 74.53438 135.50653Q73.76875 134.66278 73.76875 133.10028Q73.76875 132.10028 74.09688 131.35028Q74.44063 130.58466 75.1125 130.20966Q75.8 129.83466 76.6125 129.83466Q77.6125 129.83466 78.25313 130.35028Q78.90938 130.85028 79.09688 131.8034L78.06563 131.95966Q77.925 131.33466 77.55 131.02216Q77.175 130.69403 76.64375 130.69403Q75.84688 130.69403 75.34688 131.27216Q74.84688 131.83466 74.84688 133.06903Q74.84688 134.33466 75.33125 134.89716Q75.81563 135.45966 76.58125 135.45966Q77.20625 135.45966 77.6125 135.08466Q78.03438 134.70966 78.15938 133.91278ZM88.8625 127.60028L90.00313 127.60028L90.00313 132.56903Q90.00313 133.8659 89.70625 134.63153Q89.40938 135.38153 88.64375 135.8659Q87.87813 136.33466 86.64375 136.33466Q85.44063 136.33466 84.65938 135.9284Q83.89375 135.50653 83.56563 134.72528Q83.2375 133.9284 83.2375 132.56903L83.2375 127.60028L84.37813 127.60028L84.37813 132.5534Q84.37813 133.6784 84.58125 134.20966Q84.8 134.7409 85.3 135.03778Q85.81563 135.31903 86.55 135.31903Q87.8 135.31903 88.33125 134.75653Q88.8625 134.1784 88.8625 132.5534L88.8625 127.60028ZM91.675 134.33466L92.70625 134.1784Q92.8 134.8034 93.19063 135.13153Q93.59688 135.45966 94.33125 135.45966Q95.05 135.45966 95.39375 135.1784Q95.75313 134.88153 95.75313 134.47528Q95.75313 134.1159 95.44063 133.91278Q95.22188 133.77216 94.3625 133.5534Q93.20625 133.25653 92.75313 133.0534Q92.31563 132.83466 92.08125 132.45966Q91.84688 132.08466 91.84688 131.6159Q91.84688 131.20966 92.03438 130.85028Q92.22188 130.4909 92.55 130.25653Q92.8 130.08466 93.22188 129.95966Q93.64375 129.83466 94.14375 129.83466Q94.8625 129.83466 95.40938 130.0534Q95.97188 130.25653 96.2375 130.6159Q96.50313 130.97528 96.59688 131.56903L95.56563 131.70966Q95.50313 131.2409 95.15938 130.97528Q94.83125 130.69403 94.20625 130.69403Q93.4875 130.69403 93.175 130.94403Q92.8625 131.1784 92.8625 131.50653Q92.8625 131.70966 92.9875 131.8659Q93.12813 132.03778 93.39375 132.14716Q93.55 132.20966 94.33125 132.41278Q95.45625 132.72528 95.89375 132.91278Q96.33125 133.10028 96.58125 133.45966Q96.83125 133.81903 96.83125 134.3659Q96.83125 134.89716 96.51875 135.3659Q96.22188 135.81903 95.64375 136.08466Q95.06563 136.33466 94.33125 136.33466Q93.1125 136.33466 92.47188 135.83466Q91.84688 135.31903 91.675 134.33466ZM103.34688 134.19403L104.44063 134.31903Q104.19063 135.27216 103.4875 135.8034Q102.78438 136.33466 101.70625 136.33466Q100.34688 136.33466 99.53438 135.4909Q98.7375 134.64716 98.7375 133.13153Q98.7375 131.56903 99.55 130.70966Q100.3625 129.83466 101.64375 129.83466Q102.89375 129.83466 103.675 130.6784Q104.47188 131.52216 104.47188 133.06903Q104.47188 133.16278 104.47188 133.35028L99.83125 133.35028Q99.89375 134.38153 100.40938 134.9284Q100.925 135.45966 101.70625 135.45966Q102.28438 135.45966 102.69063 135.16278Q103.1125 134.85028 103.34688 134.19403ZM99.89375 132.4909L103.3625 132.4909Q103.3 131.69403 102.97188 131.3034Q102.45625 130.69403 101.65938 130.69403Q100.925 130.69403 100.425 131.1784Q99.94063 131.66278 99.89375 132.4909Z" fill-rule="nonzero"/><path fill="#000000" d="M108.3 175.46562Q108.3 173.93437 108.6125 173.0125Q108.925 172.075 109.53438 171.575Q110.15938 171.075 111.09688 171.075Q111.78438 171.075 112.3 171.35625Q112.83125 171.6375 113.175 172.16875Q113.51875 172.68437 113.70625 173.43437Q113.89375 174.18437 113.89375 175.46562Q113.89375 176.98125 113.58125 177.90312Q113.28438 178.825 112.65938 179.34062Q112.05 179.84062 111.09688 179.84062Q109.8625 179.84062 109.14375 178.95Q108.3 177.8875 108.3 175.46562ZM109.37813 175.46562Q109.37813 177.575 109.87813 178.27812Q110.37813 178.98125 111.09688 178.98125Q111.83125 178.98125 112.31563 178.27812Q112.81563 177.575 112.81563 175.46562Q112.81563 173.34062 112.31563 172.65312Q111.83125 171.95 111.08125 171.95Q110.3625 171.95 109.925 172.55937Q109.37813 173.34062 109.37813 175.46562Z" fill-rule="nonzero"/><path fill="#000000" d="M202.32687 178.68437L202.32687 179.7L196.63937 179.7Q196.63937 179.325 196.76437 178.96562Q196.98312 178.3875 197.45187 177.825Q197.93625 177.2625 198.8425 176.52812Q200.24875 175.37187 200.73312 174.7Q201.23312 174.02812 201.23312 173.43437Q201.23312 172.80937 200.78 172.3875Q200.32687 171.95 199.60812 171.95Q198.8425 171.95 198.38937 172.40312Q197.93625 172.85625 197.92062 173.66875L196.8425 173.55937Q196.95187 172.34062 197.67062 171.71562Q198.405 171.075 199.63937 171.075Q200.87375 171.075 201.5925 171.7625Q202.31125 172.45 202.31125 173.46562Q202.31125 173.98125 202.0925 174.48125Q201.88937 174.96562 201.38937 175.52812Q200.905 176.075 199.78 177.02812Q198.82687 177.825 198.54562 178.12187Q198.28 178.40312 198.10812 178.68437L202.32687 178.68437ZM203.78 177.45L204.88937 177.35625Q205.01437 178.16875 205.45187 178.575Q205.905 178.98125 206.54562 178.98125Q207.29562 178.98125 207.82687 178.40312Q208.35812 177.825 208.35812 176.8875Q208.35812 175.98125 207.8425 175.46562Q207.3425 174.93437 206.51437 174.93437Q206.01437 174.93437 205.5925 175.16875Q205.18625 175.40312 204.95187 175.7625L203.9675 175.6375L204.79562 171.23125L209.07687 171.23125L209.07687 172.23125L205.63937 172.23125L205.18625 174.54375Q205.95187 173.99687 206.79562 173.99687Q207.92062 173.99687 208.68625 174.77812Q209.4675 175.55937 209.4675 176.79375Q209.4675 177.95 208.79562 178.80937Q207.9675 179.84062 206.54562 179.84062Q205.37375 179.84062 204.62375 179.18437Q203.88937 178.52812 203.78 177.45ZM210.78 175.46562Q210.78 173.93437 211.0925 173.0125Q211.405 172.075 212.01437 171.575Q212.63937 171.075 213.57687 171.075Q214.26437 171.075 214.78 171.35625Q215.31125 171.6375 215.655 172.16875Q215.99875 172.68437 216.18625 173.43437Q216.37375 174.18437 216.37375 175.46562Q216.37375 176.98125 216.06125 177.90312Q215.76437 178.825 215.13937 179.34062Q214.53 179.84062 213.57687 179.84062Q212.3425 179.84062 211.62375 178.95Q210.78 177.8875 210.78 175.46562ZM211.85812 175.46562Q211.85812 177.575 212.35812 178.27812Q212.85812 178.98125 213.57687 178.98125Q214.31125 178.98125 214.79562 178.27812Q215.29562 177.575 215.29562 175.46562Q215.29562 173.34062 214.79562 172.65312Q214.31125 171.95 213.56125 171.95Q212.8425 171.95 212.405 172.55937Q211.85812 173.34062 211.85812 175.46562Z" fill-rule="nonzero"/><path fill="#000000" d="M292.26 177.45L293.3694 177.35625Q293.4944 178.16875 293.9319 178.575Q294.385 178.98125 295.02563 178.98125Q295.77563 178.98125 296.3069 178.40312Q296.83813 177.825 296.83813 176.8875Q296.83813 175.98125 296.3225 175.46562Q295.8225 174.93437 294.9944 174.93437Q294.4944 174.93437 294.0725 175.16875Q293.66626 175.40312 293.4319 175.7625L292.4475 175.6375L293.27563 171.23125L297.5569 171.23125L297.5569 172.23125L294.1194 172.23125L293.66626 174.54375Q294.4319 173.99687 295.27563 173.99687Q296.40063 173.99687 297.16626 174.77812Q297.9475 175.55937 297.9475 176.79375Q297.9475 177.95 297.27563 178.80937Q296.4475 179.84062 295.02563 179.84062Q293.85376 179.84062 293.10376 179.18437Q292.3694 178.52812 292.26 177.45ZM299.26 175.46562Q299.26 173.93437 299.5725 173.0125Q299.885 172.075 300.4944 171.575Q301.1194 171.075 302.0569 171.075Q302.7444 171.075 303.26 171.35625Q303.79126 171.6375 304.135 172.16875Q304.47876 172.68437 304.66626 173.43437Q304.85376 174.18437 304.85376 175.46562Q304.85376 176.98125 304.54126 177.90312Q304.2444 178.825 303.6194 179.34062Q303.01 179.84062 302.0569 179.84062Q300.8225 179.84062 300.10376 178.95Q299.26 177.8875 299.26 175.46562ZM300.33813 175.46562Q300.33813 177.575 300.83813 178.27812Q301.33813 178.98125 302.0569 178.98125Q302.79126 178.98125 303.27563 178.27812Q303.77563 177.575 303.77563 175.46562Q303.77563 173.34062 303.27563 172.65312Q302.79126 171.95 302.04126 171.95Q301.3225 171.95 300.885 172.55937Q300.33813 173.34062 300.33813 175.46562ZM306.26 175.46562Q306.26 173.93437 306.5725 173.0125Q306.885 172.075 307.4944 171.575Q308.1194 171.075 309.0569 171.075Q309.7444 171.075 310.26 171.35625Q310.79126 171.6375 311.135 172.16875Q311.47876 172.68437 311.66626 173.43437Q311.85376 174.18437 311.85376 175.46562Q311.85376 176.98125 311.54126 177.90312Q311.2444 178.825 310.6194 179.34062Q310.01 179.84062 309.0569 179.84062Q307.8225 179.84062 307.10376 178.95Q306.26 177.8875 306.26 175.46562ZM307.33813 175.46562Q307.33813 177.575 307.83813 178.27812Q308.33813 178.98125 309.0569 178.98125Q309.79126 178.98125 310.27563 178.27812Q310.77563 177.575 310.77563 175.46562Q310.77563 173.34062 310.27563 172.65312Q309.79126 171.95 309.04126 171.95Q308.3225 171.95 307.885 172.55937Q307.33813 173.34062 307.33813 175.46562Z" fill-rule="nonzero"/><path fill="#000000" d="M387.8025 172.23125L387.8025 171.21562L393.365 171.21562L393.365 172.04375Q392.5525 172.91875 391.74 174.37187Q390.9431 175.80937 390.5056 177.34062Q390.1775 178.41875 390.09937 179.7L389.0056 179.7Q389.02124 178.68437 389.39624 177.24687Q389.78687 175.80937 390.49 174.48125Q391.20874 173.15312 392.02124 172.23125L387.8025 172.23125ZM394.74 177.45L395.84937 177.35625Q395.97437 178.16875 396.41187 178.575Q396.865 178.98125 397.5056 178.98125Q398.2556 178.98125 398.78687 178.40312Q399.3181 177.825 399.3181 176.8875Q399.3181 175.98125 398.8025 175.46562Q398.3025 174.93437 397.47437 174.93437Q396.97437 174.93437 396.5525 175.16875Q396.14624 175.40312 395.91187 175.7625L394.9275 175.6375L395.7556 171.23125L400.03687 171.23125L400.03687 172.23125L396.59937 172.23125L396.14624 174.54375Q396.91187 173.99687 397.7556 173.99687Q398.8806 173.99687 399.64624 174.77812Q400.4275 175.55937 400.4275 176.79375Q400.4275 177.95 399.7556 178.80937Q398.9275 179.84062 397.5056 179.84062Q396.33374 179.84062 395.58374 179.18437Q394.84937 178.52812 394.74 177.45ZM401.74 175.46562Q401.74 173.93437 402.0525 173.0125Q402.365 172.075 402.97437 171.575Q403.59937 171.075 404.53687 171.075Q405.22437 171.075 405.74 171.35625Q406.27124 171.6375 406.615 172.16875Q406.95874 172.68437 407.14624 173.43437Q407.33374 174.18437 407.33374 175.46562Q407.33374 176.98125 407.02124 177.90312Q406.72437 178.825 406.09937 179.34062Q405.49 179.84062 404.53687 179.84062Q403.3025 179.84062 402.58374 178.95Q401.74 177.8875 401.74 175.46562ZM402.8181 175.46562Q402.8181 177.575 403.3181 178.27812Q403.8181 178.98125 404.53687 178.98125Q405.27124 178.98125 405.7556 178.27812Q406.2556 177.575 406.2556 175.46562Q406.2556 173.34062 405.7556 172.65312Q405.27124 171.95 404.52124 171.95Q403.8025 171.95 403.365 172.55937Q402.8181 173.34062 402.8181 175.46562Z" fill-rule="nonzero"/><path fill="#000000" d="M483.68875 179.7L482.64188 179.7L482.64188 172.98125Q482.25125 173.34062 481.62625 173.71562Q481.01688 174.075 480.5325 174.24687L480.5325 173.23125Q481.4075 172.80937 482.06375 172.23125Q482.73563 171.6375 483.01688 171.075L483.68875 171.075L483.68875 179.7ZM486.72 175.46562Q486.72 173.93437 487.0325 173.0125Q487.345 172.075 487.95438 171.575Q488.57938 171.075 489.51688 171.075Q490.20438 171.075 490.72 171.35625Q491.25125 171.6375 491.595 172.16875Q491.93875 172.68437 492.12625 173.43437Q492.31375 174.18437 492.31375 175.46562Q492.31375 176.98125 492.00125 177.90312Q491.70438 178.825 491.07938 179.34062Q490.47 179.84062 489.51688 179.84062Q488.2825 179.84062 487.56375 178.95Q486.72 177.8875 486.72 175.46562ZM487.79813 175.46562Q487.79813 177.575 488.29813 178.27812Q488.79813 178.98125 489.51688 178.98125Q490.25125 178.98125 490.73563 178.27812Q491.23563 177.575 491.23563 175.46562Q491.23563 173.34062 490.73563 172.65312Q490.25125 171.95 489.50125 171.95Q488.7825 171.95 488.345 172.55937Q487.79813 173.34062 487.79813 175.46562ZM493.72 175.46562Q493.72 173.93437 494.0325 173.0125Q494.345 172.075 494.95438 171.575Q495.57938 171.075 496.51688 171.075Q497.20438 171.075 497.72 171.35625Q498.25125 171.6375 498.595 172.16875Q498.93875 172.68437 499.12625 173.43437Q499.31375 174.18437 499.31375 175.46562Q499.31375 176.98125 499.00125 177.90312Q498.70438 178.825 498.07938 179.34062Q497.47 179.84062 496.51688 179.84062Q495.2825 179.84062 494.56375 178.95Q493.72 177.8875 493.72 175.46562ZM494.79813 175.46562Q494.79813 177.575 495.29813 178.27812Q495.79813 178.98125 496.51688 178.98125Q497.25125 178.98125 497.73563 178.27812Q498.23563 177.575 498.23563 175.46562Q498.23563 173.34062 497.73563 172.65312Q497.25125 171.95 496.50125 171.95Q495.7825 171.95 495.345 172.55937Q494.79813 173.34062 494.79813 175.46562ZM500.72 175.46562Q500.72 173.93437 501.0325 173.0125Q501.345 172.075 501.95438 171.575Q502.57938 171.075 503.51688 171.075Q504.20438 171.075 504.72 171.35625Q505.25125 171.6375 505.595 172.16875Q505.93875 172.68437 506.12625 173.43437Q506.31375 174.18437 506.31375 175.46562Q506.31375 176.98125 506.00125 177.90312Q505.70438 178.825 505.07938 179.34062Q504.47 179.84062 503.51688 179.84062Q502.2825 179.84062 501.56375 178.95Q500.72 177.8875 500.72 175.46562ZM501.79813 175.46562Q501.79813 177.575 502.29813 178.27812Q502.79813 178.98125 503.51688 178.98125Q504.25125 178.98125 504.73563 178.27812Q505.23563 177.575 505.23563 175.46562Q505.23563 173.34062 504.73563 172.65312Q504.25125 171.95 503.50125 171.95Q502.7825 171.95 502.345 172.55937Q501.79813 173.34062 501.79813 175.46562Z" fill-rule="nonzero"/></svg>